<svg width="33" height="33" viewBox="0 0 33 33" fill="none" xmlns="http://www.w3.org/2000/svg">
<path d="M29.6575 24.1345C29.6575 24.1345 20.5475 31.9126 10.8022 21.3272C1.05665 10.7421 9.17963 3.82812 9.17963 3.82812C9.55204 4.35989 9.93132 4.88653 10.3414 5.38989C10.4398 5.56339 10.5627 5.7184 10.6964 5.86554C10.8296 6.07804 10.9855 6.27344 11.152 6.46062C11.1935 6.53761 11.2432 6.6081 11.311 6.66456C11.507 6.94756 11.7208 7.21652 11.9486 7.47488C12.1316 7.74281 12.3656 7.97585 12.5016 8.27595C12.5944 8.53396 12.6496 8.79916 12.6462 9.07429C12.6205 9.35386 12.5376 9.61735 12.4224 9.87194C12.3042 10.041 12.1864 10.2097 12.0473 10.3633C11.7821 10.6573 11.4553 10.8783 11.1524 11.1274C10.9804 11.2479 10.8087 11.3683 10.6368 11.4888C10.5292 11.5408 10.4346 11.6116 10.3472 11.6924C10.0728 11.8652 9.81997 12.0651 9.5887 12.2919C9.57363 12.3063 9.5589 12.3207 9.54382 12.3347C9.30913 12.5339 9.22005 12.8008 9.18716 13.094C9.14331 13.364 9.14605 13.6323 9.2156 13.8985C9.28481 14.4902 9.50853 15.0291 9.77851 15.553C10.0122 16.0543 10.2948 16.5262 10.6258 16.9697C10.6285 16.9813 10.6337 16.9916 10.6419 16.9998C10.67 17.0402 10.6984 17.0802 10.7265 17.1203C10.8523 17.3191 10.9831 17.5141 11.1462 17.6852C11.1849 17.7769 11.2538 17.845 11.3216 17.9148C11.5159 18.1831 11.7263 18.4387 11.9565 18.6772C11.9692 18.6916 11.9818 18.7056 11.9945 18.72C12.2227 19.0129 12.4803 19.2792 12.738 19.5454C12.9919 19.827 13.2632 20.0915 13.5442 20.3461C13.8138 20.598 14.0786 20.8546 14.3709 21.0808C14.3931 21.0989 14.4154 21.1174 14.438 21.1356C14.6659 21.3566 14.9136 21.5541 15.1729 21.7375C15.2517 21.8189 15.3398 21.8887 15.4412 21.9407C15.605 22.093 15.7896 22.2172 15.9812 22.3315C16.074 22.4178 16.1782 22.4869 16.2933 22.5399C16.321 22.5594 16.3491 22.5789 16.3769 22.5981L16.4858 22.6628C16.505 22.6751 16.5242 22.6874 16.543 22.6997C16.554 22.7083 16.565 22.7165 16.5759 22.725C16.899 22.9317 17.2286 23.1264 17.5853 23.2712C18.0954 23.5268 18.6251 23.7222 19.1979 23.78C19.4665 23.8433 19.7341 23.8327 20.0017 23.7739C20.1997 23.7455 20.383 23.6818 20.5348 23.5456C20.6455 23.4703 20.7356 23.3752 20.8092 23.264C20.9713 23.1056 21.1042 22.9239 21.23 22.736C21.4527 22.4167 21.6754 22.0975 21.8984 21.7779C21.91 21.7628 21.9217 21.7477 21.9333 21.7327C22.0827 21.5476 22.2318 21.3628 22.3808 21.1777C22.3931 21.1633 22.4058 21.1489 22.4181 21.1349C22.8019 20.7444 23.2281 20.4272 23.7882 20.3403C23.8674 20.3352 23.9469 20.33 24.026 20.3246C24.5581 20.3649 25.009 20.5839 25.3978 20.9433C25.4705 21.01 25.5565 21.0623 25.6363 21.1212C25.6397 21.1325 25.6472 21.1376 25.6592 21.1369C25.9046 21.3566 26.1629 21.5595 26.4342 21.746C26.5051 21.8227 26.5867 21.8853 26.6782 21.9353C26.856 22.0958 27.0482 22.2374 27.2462 22.3716C27.399 22.5047 27.5587 22.6292 27.731 22.7367C27.8379 22.8157 27.9445 22.8948 28.051 22.9738C28.308 23.1808 28.5721 23.3773 28.8493 23.5562C28.8633 23.5665 28.8774 23.5768 28.8914 23.587C29.1364 23.7841 29.3934 23.9645 29.6575 24.1345Z" fill="#FF151F"/>
<path d="M33 27.5595C32.9722 27.8333 32.9226 28.1016 32.8057 28.3527C32.6848 28.6125 32.5587 28.8694 32.435 29.1278C32.2959 29.3653 32.1565 29.6028 32.0174 29.8402C32.0078 29.8543 31.9982 29.8683 31.9886 29.8827C31.7902 30.1804 31.5922 30.4781 31.3942 30.7758C31.3531 30.8316 31.312 30.887 31.2708 30.9428C31.103 31.1519 30.9351 31.361 30.7672 31.57C30.6637 31.6751 30.5606 31.7801 30.4571 31.8855C30.2159 32.0498 29.9747 32.2144 29.7335 32.3786C29.703 32.3807 29.6722 32.3821 29.6568 32.4156C29.3875 32.5169 29.1182 32.6185 28.8486 32.7201C28.5817 32.7797 28.3148 32.8392 28.0476 32.8988C27.7796 32.9159 27.5117 32.9333 27.2441 32.9508H26.4407C26.1735 32.9316 25.9066 32.9125 25.6393 32.8933C25.6109 32.8868 25.5825 32.8803 25.5537 32.8738C25.541 32.8728 25.528 32.8717 25.5153 32.8707C25.3046 32.8389 25.0942 32.8071 24.8835 32.7752C24.5975 32.7126 24.3114 32.6497 24.0253 32.587C23.4891 32.4248 22.9529 32.263 22.4167 32.1011C22.1543 32.0026 21.8918 31.904 21.6294 31.8051L21.6256 31.8065C21.6075 31.7976 21.5897 31.7884 21.5718 31.7791C21.4756 31.7223 21.3738 31.6782 21.2642 31.6532C21.2131 31.6111 21.1556 31.5844 21.0888 31.5796L21.0812 31.5697L21.0692 31.5721C20.714 31.4041 20.3587 31.2364 20.0034 31.0687C19.4665 30.784 18.9293 30.499 18.3924 30.2143C18.2588 30.1164 18.1173 30.0322 17.9665 29.9638C17.849 29.8721 17.7226 29.7954 17.588 29.7318C17.3344 29.5696 17.0806 29.4077 16.827 29.2455C16.7952 29.2021 16.7479 29.1836 16.6992 29.1678C16.4687 28.9923 16.2302 28.8277 15.9811 28.6792C15.8427 28.5762 15.706 28.4708 15.5648 28.3712C14.8837 27.8904 14.2341 27.3679 13.5712 26.8632C13.5284 26.8276 13.4852 26.792 13.4424 26.7564C13.2156 26.5679 12.9884 26.3797 12.7616 26.1911C12.6814 26.0956 12.5841 26.0203 12.4817 25.9509C12.3189 25.7873 12.148 25.6337 11.9619 25.4968C11.8413 25.3661 11.7125 25.2449 11.5666 25.1426C11.4282 25.0136 11.2894 24.8843 11.1506 24.7553C11.0033 24.6184 10.8563 24.4815 10.709 24.3443C10.5963 24.2201 10.4832 24.0962 10.3452 23.9983C10.1965 23.8351 10.0443 23.6753 9.8703 23.5381C9.77436 23.4173 9.66541 23.3092 9.54481 23.2123C9.39886 23.0467 9.25154 22.8821 9.08195 22.7391C8.97608 22.6104 8.86679 22.4845 8.73557 22.3798C8.59304 22.2292 8.45051 22.0786 8.30764 21.9281C8.19767 21.7806 8.07364 21.6461 7.93591 21.5243C7.82559 21.383 7.71081 21.2457 7.57583 21.127C7.43844 20.9453 7.28803 20.7749 7.12529 20.6154C7.04341 20.5199 6.96152 20.4245 6.87964 20.329C6.69531 20.111 6.51099 19.893 6.32701 19.6751C6.29651 19.6148 6.25814 19.5611 6.20127 19.5228C6.10808 19.402 6.01763 19.2788 5.92135 19.1604C5.379 18.4935 4.8805 17.7937 4.36419 17.1076C4.21446 16.8893 4.06474 16.671 3.91502 16.4526C3.8835 16.404 3.85198 16.3558 3.82046 16.3072C3.57241 15.9174 3.32436 15.5273 3.07665 15.1372C3.06946 15.1253 3.0626 15.1133 3.05541 15.1013C3.04616 15.0876 3.03691 15.0743 3.02766 15.0606C3.02629 15.0267 3.01258 15.0007 2.98312 14.9833L2.98243 14.9822C2.97113 14.9641 2.95948 14.9456 2.94817 14.9275C2.93584 14.9059 2.92316 14.884 2.91048 14.8625C2.89918 14.8436 2.88787 14.8248 2.87657 14.8057L2.88171 14.8094C2.86423 14.7803 2.84642 14.7509 2.82894 14.7215C2.83237 14.7116 2.82894 14.7047 2.81866 14.7009C2.5271 14.1644 2.2352 13.6278 1.94364 13.0913C1.69661 12.5438 1.44959 11.9963 1.20257 11.4484C1.10252 11.1918 1.00214 10.9355 0.902096 10.6788C0.844537 10.4725 0.783553 10.2672 0.69276 10.0724C0.684538 9.98587 0.660212 9.90409 0.616701 9.82846C0.546123 9.5773 0.475545 9.32613 0.404967 9.07461C0.340213 8.79196 0.27546 8.50931 0.210706 8.22666C0.16925 7.97344 0.127794 7.72021 0.0863381 7.46733C0.0589292 7.19905 0.0315203 6.93112 0.00445395 6.66284C0.00274089 6.39559 0.00137045 6.12799 0 5.86074C0.0154175 5.60546 0.030835 5.34984 0.0462526 5.09457C0.100385 4.81431 0.15486 4.53371 0.209336 4.25312C0.304582 3.98586 0.399828 3.71861 0.495416 3.45136C0.560512 3.32988 0.625266 3.20806 0.690362 3.08624C0.794173 2.93875 0.897985 2.79161 1.0018 2.64412C1.16591 2.48021 1.33002 2.31665 1.49413 2.15274C1.61952 2.05076 1.74458 1.94879 1.86963 1.84716C2.01421 1.74039 2.15914 1.63397 2.30372 1.52755C2.54732 1.36569 2.79057 1.20349 3.03383 1.04164C3.05747 1.02726 3.08111 1.01289 3.10475 0.998177C3.37404 0.841452 3.64367 0.68507 3.91331 0.528346C4.10449 0.431505 4.29601 0.335007 4.48753 0.238508C4.59785 0.215581 4.69823 0.167675 4.79656 0.114977C4.93018 0.0848639 5.0638 0.0544086 5.19742 0.0242957L5.21695 0.0273754L5.2351 0.019505C5.26388 0.0157409 5.29266 0.0119768 5.3211 0.00855482C5.33926 0.00581728 5.35707 0.00342194 5.37523 0.000684401C5.39065 0.000684401 5.40607 0.000342193 5.42114 0C5.73155 0.019505 6.03442 0.0732293 6.32358 0.190601C6.35887 0.207369 6.39416 0.223794 6.42945 0.240562C6.68743 0.409263 6.92863 0.597469 7.12872 0.834266C7.1784 0.903732 7.22808 0.973197 7.27775 1.04266C7.61523 1.59393 7.97805 2.1281 8.36006 2.6496C8.46764 2.83883 8.59338 3.0154 8.73283 3.18205C8.77497 3.28402 8.84794 3.36512 8.91544 3.44965C9.00349 3.57592 9.0912 3.70184 9.17959 3.82777C9.17959 3.82777 1.05661 10.7418 10.8022 21.3268C20.5474 31.9122 29.6575 24.1342 29.6575 24.1342C29.7579 24.2119 29.8524 24.2978 29.972 24.3474C30.121 24.4825 30.291 24.589 30.4626 24.6926C30.9851 25.0756 31.5295 25.426 32.0739 25.7764C32.1517 25.8359 32.2295 25.8954 32.3069 25.955C32.7448 26.4009 32.999 26.9258 33 27.5595Z" fill="#FF151F"/>
</svg>
