<svg width="34" height="34" viewBox="0 0 34 34" fill="none" xmlns="http://www.w3.org/2000/svg">
<path fill-rule="evenodd" clip-rule="evenodd" d="M17 34C26.3888 34 34 26.3888 34 17C34 7.61116 26.3888 0 17 0C7.61116 0 0 7.61116 0 17C0 26.3888 7.61116 34 17 34ZM15.266 4.76857V16.7466H7.92998C7.09044 16.7466 6.40986 17.4271 6.40986 18.2667C6.40986 19.1062 7.09044 19.7868 7.92998 19.7868H16.2878C17.6047 19.7868 18.6722 18.834 18.6722 17.6586V4.76857C18.6722 3.82798 17.9097 3.06548 16.9691 3.06548C16.0285 3.06548 15.266 3.82798 15.266 4.76857Z" fill="#FF151F"/>
</svg>
