<svg width="27" height="34" viewBox="0 0 27 34" fill="none" xmlns="http://www.w3.org/2000/svg">
<path d="M13.0414 34C10.407 31.2413 7.95079 28.3178 5.68764 25.2472C3.93825 22.8487 2.33064 20.367 1.13314 17.638C0.373859 15.9074 -0.118266 14.1217 0.0246848 12.2082C0.182071 10.0382 0.874383 7.94091 2.03981 6.10364C3.20523 4.26636 4.80749 2.74627 6.70353 1.6791C8.42359 0.710687 10.3409 0.144925 12.3111 0.0243716C14.2814 -0.0961821 16.2533 0.231611 18.0786 0.983093C20.0955 1.80612 21.8726 3.12383 23.246 4.81464C24.6498 6.53615 25.6004 8.58164 26.0112 10.7647C26.4916 13.1901 26.0616 15.4762 25.0621 17.7001C23.4662 21.2469 21.2517 24.3965 18.866 27.4372C17.078 29.7173 15.1728 31.8979 13.1785 33.9988L13.0414 34ZM13.1012 18.4582C14.1606 18.4596 15.1966 18.1467 16.0781 17.5591C16.9597 16.9715 17.6471 16.1356 18.0535 15.1572C18.4598 14.1788 18.5668 13.1019 18.3609 12.0626C18.1549 11.0234 17.6454 10.0686 16.8967 9.3191C16.1479 8.56956 15.1937 8.05896 14.1547 7.85191C13.1157 7.64486 12.0387 7.75065 11.0598 8.15592C10.081 8.56118 9.24432 9.2477 8.65576 10.1286C8.06719 11.0095 7.75316 12.0452 7.75339 13.1046C7.75216 13.8075 7.8896 14.5037 8.15784 15.1534C8.42608 15.8032 8.81985 16.3936 9.31661 16.8909C9.81336 17.3882 10.4033 17.7826 11.0528 18.0515C11.7022 18.3205 12.3982 18.4587 13.1012 18.4582Z" fill="#FF151F"/>
</svg>
