<svg width="28" height="28" viewBox="0 0 28 28" fill="none" xmlns="http://www.w3.org/2000/svg">
<path d="M27.8727 23.3056C27.8494 23.5354 27.8077 23.7606 27.7096 23.9715C27.6081 24.1895 27.5022 24.4053 27.3984 24.6222C27.2816 24.8215 27.1646 25.0209 27.0478 25.2203C27.0397 25.2321 27.0317 25.2438 27.0236 25.2559C26.8571 25.5058 26.6908 25.7558 26.5246 26.0057C26.4901 26.0525 26.4556 26.0991 26.421 26.1459C26.2801 26.3214 26.1392 26.4969 25.9982 26.6725C25.9114 26.7607 25.8248 26.8489 25.7379 26.9373C25.5354 27.0752 25.3329 27.2134 25.1304 27.3513C25.1048 27.353 25.079 27.3542 25.066 27.3823C24.8399 27.4674 24.6139 27.5527 24.3875 27.638C24.1634 27.688 23.9394 27.738 23.715 27.788C23.4901 27.8023 23.2652 27.817 23.0405 27.8316H22.366C22.1417 27.8156 21.9176 27.7995 21.6933 27.7834C21.6694 27.7779 21.6455 27.7725 21.6214 27.767C21.6107 27.7661 21.5998 27.7653 21.5891 27.7644C21.4123 27.7377 21.2356 27.711 21.0588 27.6843C20.8186 27.6317 20.5784 27.5788 20.3382 27.5263C19.8881 27.3901 19.438 27.2542 18.9878 27.1183C18.7675 27.0356 18.5472 26.9529 18.3268 26.8698L18.3237 26.871C18.3084 26.8635 18.2935 26.8558 18.2785 26.848C18.1977 26.8003 18.1123 26.7633 18.0202 26.7423C17.9774 26.7069 17.9291 26.6845 17.873 26.6805L17.8666 26.6722L17.8566 26.6742C17.5583 26.5331 17.26 26.3924 16.9617 26.2516C16.511 26.0126 16.06 25.7733 15.6093 25.5343C15.4971 25.4521 15.3783 25.3814 15.2518 25.324C15.1531 25.247 15.047 25.1826 14.934 25.1292C14.7211 24.993 14.508 24.8572 14.2951 24.721C14.2684 24.6845 14.2287 24.669 14.1878 24.6558C13.9943 24.5084 13.7941 24.3702 13.585 24.2455C13.4688 24.1591 13.354 24.0706 13.2355 23.987C12.6637 23.5834 12.1183 23.1447 11.5618 22.7209C11.5258 22.6911 11.4896 22.6612 11.4536 22.6313C11.2632 22.473 11.0725 22.315 10.8821 22.1567C10.8148 22.0766 10.7331 22.0134 10.6471 21.9551C10.5105 21.8177 10.367 21.6888 10.2108 21.5738C10.1095 21.4641 10.0014 21.3624 9.87885 21.2765C9.76265 21.1682 9.64616 21.0596 9.52967 20.9513C9.40599 20.8364 9.2826 20.7215 9.15892 20.6063C9.06429 20.502 8.96937 20.398 8.85345 20.3159C8.72862 20.1788 8.60091 20.0447 8.4548 19.9295C8.37426 19.8281 8.28279 19.7373 8.18155 19.656C8.05902 19.5169 7.93534 19.3787 7.79296 19.2587C7.70408 19.1507 7.61233 19.0449 7.50217 18.957C7.38251 18.8306 7.26286 18.7042 7.14291 18.5778C7.05059 18.454 6.94646 18.3411 6.83084 18.2388C6.73822 18.1202 6.64186 18.005 6.52854 17.9053C6.4132 17.7528 6.28693 17.6097 6.1503 17.4758C6.08156 17.3957 6.01282 17.3155 5.94407 17.2354C5.78933 17.0524 5.63458 16.8694 5.48012 16.6864C5.45453 16.6358 5.42231 16.5907 5.37456 16.5585C5.29633 16.4571 5.22039 16.3537 5.13957 16.2543C4.68425 15.6944 4.26575 15.1069 3.83229 14.5309C3.7066 14.3476 3.5809 14.1644 3.45521 13.9811C3.42875 13.9403 3.40228 13.8998 3.37582 13.859C3.16758 13.5318 2.95933 13.2043 2.75138 12.8768C2.74534 12.8667 2.73958 12.8567 2.73354 12.8466C2.72578 12.8351 2.71801 12.8239 2.71025 12.8124C2.7091 12.784 2.69759 12.7621 2.67285 12.7475L2.67228 12.7466C2.66279 12.7314 2.65301 12.7159 2.64352 12.7007C2.63316 12.6826 2.62252 12.6642 2.61188 12.6461C2.60238 12.6303 2.59289 12.6145 2.5834 12.5984L2.58771 12.6016C2.57305 12.5771 2.55809 12.5524 2.54342 12.5277C2.5463 12.5194 2.54342 12.5136 2.53479 12.5105C2.29002 12.06 2.04496 11.6096 1.80018 11.1591C1.5928 10.6995 1.38542 10.2398 1.17804 9.7799C1.09405 9.56444 1.00978 9.34927 0.925787 9.13381C0.877466 8.96058 0.826267 8.78821 0.750045 8.62475C0.743142 8.55207 0.722721 8.48341 0.686191 8.41992C0.62694 8.20906 0.567688 7.9982 0.508436 7.78705C0.454074 7.54976 0.399712 7.31246 0.34535 7.07517C0.310546 6.86259 0.275743 6.65 0.24094 6.4377C0.217929 6.21247 0.194919 5.98753 0.172196 5.76231C0.170758 5.53794 0.169608 5.31329 0.168457 5.08893C0.1814 4.87462 0.194344 4.66002 0.207287 4.44571C0.252733 4.21043 0.298466 3.97486 0.344199 3.73929C0.42416 3.51492 0.504122 3.29056 0.58437 3.0662C0.63902 2.96421 0.693382 2.86194 0.748032 2.75967C0.835184 2.63585 0.922336 2.51232 1.00949 2.3885C1.14726 2.2509 1.28504 2.11358 1.42281 1.97597C1.52809 1.89036 1.63307 1.80475 1.73806 1.71943C1.85944 1.6298 1.9811 1.54046 2.10248 1.45111C2.30699 1.31523 2.51121 1.17906 2.71542 1.04318C2.73527 1.03111 2.75512 1.01905 2.77496 1.00669C3.00104 0.87512 3.2274 0.743833 3.45377 0.61226C3.61427 0.53096 3.77505 0.449947 3.93584 0.368934C4.02845 0.349687 4.11273 0.309468 4.19528 0.265227C4.30746 0.239946 4.41963 0.214378 4.53181 0.189098L4.5482 0.191683L4.56345 0.185076C4.58761 0.181916 4.61177 0.178756 4.63564 0.175883C4.65089 0.173585 4.66584 0.171574 4.68109 0.169276C4.69403 0.169276 4.70697 0.168988 4.71963 0.168701C4.98022 0.185076 5.23449 0.230179 5.47725 0.328715C5.50687 0.342792 5.5365 0.356581 5.56613 0.370658C5.78271 0.512287 5.9852 0.67029 6.15318 0.869087C6.19489 0.927405 6.23659 0.985722 6.2783 1.04404C6.56161 1.50685 6.86621 1.95529 7.18692 2.3931C7.27724 2.55197 7.3828 2.7002 7.49986 2.84011C7.53524 2.92572 7.59651 2.9938 7.65317 3.06476C7.72709 3.17076 7.80073 3.27648 7.87493 3.3822C7.87493 3.3822 1.05551 9.18667 9.23715 18.0731C17.4185 26.9597 25.0666 20.4299 25.0666 20.4299C25.1509 20.4951 25.2303 20.5672 25.3306 20.6089C25.4558 20.7224 25.5984 20.8117 25.7425 20.8987C26.1812 21.2202 26.6382 21.5144 27.0952 21.8086C27.1605 21.8585 27.2258 21.9085 27.2908 21.9585C27.6584 22.3328 27.8719 22.7735 27.8727 23.3056Z" fill="#FF0000"/>
</svg>
