<svg width="269" height="23" viewBox="0 0 269 23" fill="none" xmlns="http://www.w3.org/2000/svg">
<path d="M0.86 0.93H3.34C3.68 0.93 3.98667 0.95 4.26 0.99C4.54 1.03 4.79 1.12333 5.01 1.27C5.20333 1.39667 5.36667 1.57667 5.5 1.81C5.63333 2.04333 5.7 2.34 5.7 2.7C5.7 3.06 5.61667 3.38 5.45 3.66C5.29 3.94 5.04 4.14667 4.7 4.28C5.15333 4.36 5.49333 4.55333 5.72 4.86C5.94667 5.16 6.06 5.55 6.06 6.03C6.04 6.47 5.94667 6.81333 5.78 7.06C5.61333 7.30667 5.4 7.5 5.14 7.64C4.88 7.78 4.58667 7.87667 4.26 7.93C3.94 7.97667 3.61667 8 3.29 8H0.86V0.93ZM1.73 1.72V4.03H3.09C3.27667 4.03 3.47 4.01667 3.67 3.99C3.87 3.96333 4.05 3.90667 4.21 3.82C4.39667 3.72667 4.54667 3.6 4.66 3.44C4.78 3.27333 4.84333 3.04667 4.85 2.76C4.85 2.53333 4.81 2.35333 4.73 2.22C4.65 2.08 4.54 1.97333 4.4 1.9C4.26 1.82667 4.1 1.78 3.92 1.76C3.74 1.73333 3.55 1.72 3.35 1.72H1.73ZM3.26 7.21C3.47333 7.21 3.68667 7.2 3.9 7.18C4.12 7.16 4.32667 7.11 4.52 7.03C4.72 6.94333 4.88 6.82 5 6.66C5.12 6.49333 5.18 6.27 5.18 5.99C5.18 5.75 5.13333 5.55333 5.04 5.4C4.95333 5.24667 4.83333 5.12667 4.68 5.04C4.53333 4.95333 4.36333 4.89333 4.17 4.86C3.97667 4.82667 3.78 4.81 3.58 4.81H1.73V7.21H3.26ZM7.22273 2.73H8.09273V4.74H9.04273C9.34273 4.74 9.61607 4.76333 9.86273 4.81C10.1161 4.85 10.3394 4.93667 10.5327 5.07C10.7127 5.20333 10.8494 5.37333 10.9427 5.58C11.0427 5.78 11.0927 6.03 11.0927 6.33C11.0794 6.63 11.0227 6.88 10.9227 7.08C10.8294 7.27333 10.7061 7.43667 10.5527 7.57C10.3661 7.72333 10.1394 7.83333 9.87273 7.9C9.60607 7.96667 9.33273 8 9.05273 8H7.22273V2.73ZM11.8227 8V2.73H12.6727V8H11.8227ZM8.37273 7.26C8.62607 7.26 8.8794 7.25667 9.13273 7.25C9.39273 7.23667 9.61607 7.18333 9.80273 7.09C9.9294 7.03667 10.0294 6.94667 10.1027 6.82C10.1827 6.68667 10.2261 6.53333 10.2327 6.36C10.2327 6.15333 10.1894 5.99 10.1027 5.87C10.0227 5.75 9.91607 5.66333 9.78273 5.61C9.65607 5.55 9.51273 5.51333 9.35273 5.5C9.19273 5.48667 9.03607 5.48 8.88273 5.48H8.09273V7.26H8.37273ZM17.3052 3.89C17.3118 3.69667 17.3152 3.50333 17.3152 3.31C17.3152 3.11667 17.3152 2.92333 17.3152 2.73H21.0552V7.26H21.7452V9.62H20.9252V8H17.0752V9.62H16.2552V7.26C16.5218 7.26 16.7318 7.14 16.8852 6.9C16.9785 6.76667 17.0518 6.57667 17.1052 6.33C17.1585 6.07667 17.1985 5.81 17.2252 5.53C17.2585 5.22333 17.2785 4.92 17.2852 4.62C17.2985 4.31333 17.3052 4.07 17.3052 3.89ZM20.2052 3.48H18.1252C18.1185 3.76 18.1118 4.07333 18.1052 4.42C18.0985 4.76667 18.0852 5.09 18.0652 5.39C18.0585 5.52333 18.0485 5.67 18.0352 5.83C18.0218 5.98333 17.9985 6.14333 17.9652 6.31C17.9385 6.47 17.8952 6.63333 17.8352 6.8C17.7818 6.96667 17.7052 7.12 17.6052 7.26H20.2052V3.48ZM26.1029 7.33C25.9896 7.48333 25.8596 7.60667 25.7129 7.7C25.5662 7.79333 25.4129 7.86667 25.2529 7.92C25.0996 7.97333 24.9429 8.01 24.7829 8.03C24.6296 8.05 24.4762 8.06 24.3229 8.06C24.0762 8.06 23.8429 8.03 23.6229 7.97C23.4029 7.91 23.2029 7.81333 23.0229 7.68C22.8496 7.54667 22.7096 7.38 22.6029 7.18C22.5029 6.98 22.4529 6.75333 22.4529 6.5C22.4529 6.2 22.5062 5.95 22.6129 5.75C22.7262 5.54333 22.8762 5.37667 23.0629 5.25C23.2496 5.12333 23.4629 5.03667 23.7029 4.99C23.9496 4.93667 24.2096 4.91 24.4829 4.91H26.0329C26.0329 4.46333 25.9362 4.11 25.7429 3.85C25.5496 3.58333 25.2229 3.44333 24.7629 3.43C24.4829 3.43 24.2362 3.47667 24.0229 3.57C23.8096 3.66333 23.6629 3.81667 23.5829 4.03H22.6729C22.7196 3.79 22.8129 3.58667 22.9529 3.42C23.0929 3.24667 23.2596 3.10667 23.4529 3C23.6462 2.88667 23.8562 2.80333 24.0829 2.75C24.3096 2.69667 24.5362 2.67 24.7629 2.67C25.1562 2.67 25.4862 2.73667 25.7529 2.87C26.0262 2.99667 26.2462 3.16667 26.4129 3.38C26.5796 3.58667 26.6962 3.84 26.7629 4.14C26.8296 4.44 26.8629 4.77667 26.8629 5.15V8H26.1529L26.1029 7.33ZM25.1029 5.62C24.9429 5.62 24.7562 5.62333 24.5429 5.63C24.3362 5.63 24.1362 5.65 23.9429 5.69C23.7496 5.73 23.5929 5.81333 23.4729 5.94C23.3596 6.06667 23.3029 6.23333 23.3029 6.44C23.3029 6.59333 23.3329 6.72333 23.3929 6.83C23.4529 6.93667 23.5329 7.02667 23.6329 7.1C23.7396 7.17333 23.8596 7.22667 23.9929 7.26C24.1262 7.29333 24.2629 7.31 24.4029 7.31C24.9029 7.31 25.2962 7.19 25.5829 6.95C25.8762 6.70333 26.0262 6.34667 26.0329 5.88V5.62H25.1029ZM28.8398 5.68C28.8598 5.91333 28.9064 6.13 28.9798 6.33C29.0598 6.52333 29.1664 6.69333 29.2998 6.84C29.4331 6.98667 29.5964 7.10333 29.7898 7.19C29.9898 7.27 30.2198 7.31 30.4798 7.31C30.6064 7.31 30.7364 7.3 30.8698 7.28C31.0098 7.25333 31.1398 7.21333 31.2598 7.16C31.3798 7.1 31.4864 7.02333 31.5798 6.93C31.6731 6.83667 31.7431 6.72333 31.7898 6.59H32.6598C32.5998 6.84333 32.4964 7.06333 32.3498 7.25C32.2098 7.43667 32.0398 7.59 31.8398 7.71C31.6464 7.83 31.4298 7.92 31.1898 7.98C30.9498 8.03333 30.7064 8.06 30.4598 8.06C30.0398 8.06 29.6731 7.99333 29.3598 7.86C29.0531 7.72667 28.7964 7.54333 28.5898 7.31C28.3831 7.07 28.2298 6.78667 28.1298 6.46C28.0298 6.12667 27.9798 5.76333 27.9798 5.37C27.9798 4.97667 28.0331 4.61667 28.1398 4.29C28.2531 3.95667 28.4131 3.67 28.6198 3.43C28.8264 3.19 29.0798 3.00333 29.3798 2.87C29.6798 2.73667 30.0364 2.67 30.4498 2.67C30.8698 2.67 31.2331 2.75333 31.5398 2.92C31.8464 3.08667 32.0931 3.30667 32.2798 3.58C32.4664 3.84667 32.5964 4.13667 32.6698 4.45C32.7498 4.76333 32.7831 5.05333 32.7698 5.32C32.7698 5.38 32.7664 5.44 32.7598 5.5C32.7598 5.56 32.7564 5.62 32.7498 5.68H28.8398ZM31.9098 4.94C31.8964 4.49333 31.7564 4.13 31.4898 3.85C31.2231 3.57 30.8664 3.43 30.4198 3.43C30.1731 3.43 29.9564 3.47 29.7698 3.55C29.5831 3.63 29.4264 3.74 29.2998 3.88C29.1731 4.02 29.0731 4.18333 28.9998 4.37C28.9264 4.55 28.8798 4.74 28.8598 4.94H31.9098ZM37.8022 2.73V3.48H35.9922V8H35.1422V3.48H33.3322V2.73H37.8022ZM39.2206 5.68C39.2406 5.91333 39.2873 6.13 39.3606 6.33C39.4406 6.52333 39.5473 6.69333 39.6806 6.84C39.814 6.98667 39.9773 7.10333 40.1706 7.19C40.3706 7.27 40.6006 7.31 40.8606 7.31C40.9873 7.31 41.1173 7.3 41.2506 7.28C41.3906 7.25333 41.5206 7.21333 41.6406 7.16C41.7606 7.1 41.8673 7.02333 41.9606 6.93C42.054 6.83667 42.124 6.72333 42.1706 6.59H43.0406C42.9806 6.84333 42.8773 7.06333 42.7306 7.25C42.5906 7.43667 42.4206 7.59 42.2206 7.71C42.0273 7.83 41.8106 7.92 41.5706 7.98C41.3306 8.03333 41.0873 8.06 40.8406 8.06C40.4206 8.06 40.054 7.99333 39.7406 7.86C39.434 7.72667 39.1773 7.54333 38.9706 7.31C38.764 7.07 38.6106 6.78667 38.5106 6.46C38.4106 6.12667 38.3606 5.76333 38.3606 5.37C38.3606 4.97667 38.414 4.61667 38.5206 4.29C38.634 3.95667 38.794 3.67 39.0006 3.43C39.2073 3.19 39.4606 3.00333 39.7606 2.87C40.0606 2.73667 40.4173 2.67 40.8306 2.67C41.2506 2.67 41.614 2.75333 41.9206 2.92C42.2273 3.08667 42.474 3.30667 42.6606 3.58C42.8473 3.84667 42.9773 4.13667 43.0506 4.45C43.1306 4.76333 43.164 5.05333 43.1506 5.32C43.1506 5.38 43.1473 5.44 43.1406 5.5C43.1406 5.56 43.1373 5.62 43.1306 5.68H39.2206ZM42.2906 4.94C42.2773 4.49333 42.1373 4.13 41.8706 3.85C41.604 3.57 41.2473 3.43 40.8006 3.43C40.554 3.43 40.3373 3.47 40.1506 3.55C39.964 3.63 39.8073 3.74 39.6806 3.88C39.554 4.02 39.454 4.18333 39.3806 4.37C39.3073 4.55 39.2606 4.74 39.2406 4.94H42.2906ZM49.2384 8.06C48.8184 8.06 48.455 7.99333 48.1484 7.86C47.8417 7.72667 47.5884 7.54 47.3884 7.3C47.1884 7.06 47.0384 6.77667 46.9384 6.45C46.8384 6.12333 46.7884 5.76667 46.7884 5.38C46.7884 5.00667 46.8417 4.65667 46.9484 4.33C47.055 3.99667 47.2117 3.71 47.4184 3.47C47.625 3.22333 47.885 3.03 48.1984 2.89C48.5117 2.74333 48.8917 2.67 49.3384 2.67C49.605 2.67 49.8417 2.7 50.0484 2.76C50.255 2.81333 50.4484 2.90333 50.6284 3.03C50.815 3.15 50.975 3.31 51.1084 3.51C51.2417 3.71 51.3384 3.95333 51.3984 4.24H50.5284C50.4284 3.94667 50.2684 3.73667 50.0484 3.61C49.835 3.48333 49.5817 3.42333 49.2884 3.43C49.0017 3.43 48.7484 3.48667 48.5284 3.6C48.315 3.70667 48.1417 3.85 48.0084 4.03C47.8817 4.21 47.7884 4.42 47.7284 4.66C47.6684 4.89333 47.6384 5.13333 47.6384 5.38C47.6384 5.64 47.6684 5.88667 47.7284 6.12C47.795 6.35333 47.8917 6.56 48.0184 6.74C48.1517 6.91333 48.3217 7.05333 48.5284 7.16C48.735 7.26 48.9817 7.31 49.2684 7.31C49.4084 7.31 49.545 7.29667 49.6784 7.27C49.8184 7.24333 49.945 7.2 50.0584 7.14C50.1784 7.07333 50.2817 6.98667 50.3684 6.88C50.455 6.77333 50.5184 6.64333 50.5584 6.49H51.4384C51.385 6.76333 51.2884 7 51.1484 7.2C51.015 7.39333 50.8484 7.55667 50.6484 7.69C50.4484 7.81667 50.2284 7.91 49.9884 7.97C49.7484 8.03 49.4984 8.06 49.2384 8.06ZM54.8357 2.67C55.2557 2.67 55.619 2.73667 55.9257 2.87C56.2324 3.00333 56.489 3.19 56.6957 3.43C56.909 3.67 57.0657 3.95667 57.1657 4.29C57.2724 4.61667 57.3257 4.97667 57.3257 5.37C57.3257 5.76333 57.2724 6.12667 57.1657 6.46C57.0657 6.78667 56.909 7.07 56.6957 7.31C56.489 7.54333 56.229 7.72667 55.9157 7.86C55.6024 7.99333 55.2357 8.06 54.8157 8.06C54.3957 8.06 54.029 7.99333 53.7157 7.86C53.409 7.72667 53.149 7.54333 52.9357 7.31C52.729 7.07 52.5724 6.78667 52.4657 6.46C52.3657 6.12667 52.3157 5.76333 52.3157 5.37C52.3157 4.97667 52.3657 4.61667 52.4657 4.29C52.5724 3.95667 52.729 3.67 52.9357 3.43C53.149 3.19 53.4124 3.00333 53.7257 2.87C54.039 2.73667 54.409 2.67 54.8357 2.67ZM54.8157 7.31C55.1024 7.31 55.349 7.26 55.5557 7.16C55.769 7.06 55.9424 6.92333 56.0757 6.75C56.2157 6.57 56.3157 6.36333 56.3757 6.13C56.4424 5.89667 56.4757 5.64333 56.4757 5.37C56.4757 5.10333 56.4424 4.85333 56.3757 4.62C56.3157 4.38 56.2157 4.17333 56.0757 4C55.9424 3.82 55.769 3.68 55.5557 3.58C55.349 3.48 55.1024 3.43 54.8157 3.43C54.529 3.43 54.2824 3.48 54.0757 3.58C53.869 3.68 53.6957 3.82 53.5557 4C53.4224 4.17333 53.3224 4.38 53.2557 4.62C53.1957 4.85333 53.1657 5.10333 53.1657 5.37C53.1657 5.64333 53.1957 5.89667 53.2557 6.13C53.3224 6.36333 53.4224 6.57 53.5557 6.75C53.6957 6.92333 53.869 7.06 54.0757 7.16C54.2824 7.26 54.529 7.31 54.8157 7.31ZM58.463 8V2.73H62.103V3.48H59.313V8H58.463ZM63.494 5.53C63.5273 5.05 63.5507 4.58333 63.564 4.13C63.584 3.67667 63.5973 3.21 63.604 2.73H67.264V8H66.414V3.48H64.434L64.344 5.55C64.3307 5.81667 64.3007 6.11667 64.254 6.45C64.2073 6.78333 64.1107 7.08667 63.964 7.36C63.8507 7.55333 63.6973 7.71 63.504 7.83C63.3107 7.95 63.0873 8.01 62.834 8.01H62.524V7.26C62.7907 7.26 63.004 7.14667 63.164 6.92C63.2573 6.78667 63.3307 6.59333 63.384 6.34C63.4373 6.08667 63.474 5.81667 63.494 5.53ZM72.0697 7.33C71.9564 7.48333 71.8264 7.60667 71.6797 7.7C71.533 7.79333 71.3797 7.86667 71.2197 7.92C71.0664 7.97333 70.9097 8.01 70.7497 8.03C70.5964 8.05 70.443 8.06 70.2897 8.06C70.043 8.06 69.8097 8.03 69.5897 7.97C69.3697 7.91 69.1697 7.81333 68.9897 7.68C68.8164 7.54667 68.6764 7.38 68.5697 7.18C68.4697 6.98 68.4197 6.75333 68.4197 6.5C68.4197 6.2 68.473 5.95 68.5797 5.75C68.693 5.54333 68.843 5.37667 69.0297 5.25C69.2164 5.12333 69.4297 5.03667 69.6697 4.99C69.9164 4.93667 70.1764 4.91 70.4497 4.91H71.9997C71.9997 4.46333 71.903 4.11 71.7097 3.85C71.5164 3.58333 71.1897 3.44333 70.7297 3.43C70.4497 3.43 70.203 3.47667 69.9897 3.57C69.7764 3.66333 69.6297 3.81667 69.5497 4.03H68.6397C68.6864 3.79 68.7797 3.58667 68.9197 3.42C69.0597 3.24667 69.2264 3.10667 69.4197 3C69.613 2.88667 69.823 2.80333 70.0497 2.75C70.2764 2.69667 70.503 2.67 70.7297 2.67C71.123 2.67 71.453 2.73667 71.7197 2.87C71.993 2.99667 72.213 3.16667 72.3797 3.38C72.5464 3.58667 72.663 3.84 72.7297 4.14C72.7964 4.44 72.8297 4.77667 72.8297 5.15V8H72.1197L72.0697 7.33ZM71.0697 5.62C70.9097 5.62 70.723 5.62333 70.5097 5.63C70.303 5.63 70.103 5.65 69.9097 5.69C69.7164 5.73 69.5597 5.81333 69.4397 5.94C69.3264 6.06667 69.2697 6.23333 69.2697 6.44C69.2697 6.59333 69.2997 6.72333 69.3597 6.83C69.4197 6.93667 69.4997 7.02667 69.5997 7.1C69.7064 7.17333 69.8264 7.22667 69.9597 7.26C70.093 7.29333 70.2297 7.31 70.3697 7.31C70.8697 7.31 71.263 7.19 71.5497 6.95C71.843 6.70333 71.993 6.34667 71.9997 5.88V5.62H71.0697ZM76.3966 8.06C75.9766 8.06 75.6132 7.99333 75.3066 7.86C74.9999 7.72667 74.7466 7.54 74.5466 7.3C74.3466 7.06 74.1966 6.77667 74.0966 6.45C73.9966 6.12333 73.9466 5.76667 73.9466 5.38C73.9466 5.00667 73.9999 4.65667 74.1066 4.33C74.2132 3.99667 74.3699 3.71 74.5766 3.47C74.7832 3.22333 75.0432 3.03 75.3566 2.89C75.6699 2.74333 76.0499 2.67 76.4966 2.67C76.7632 2.67 76.9999 2.7 77.2066 2.76C77.4132 2.81333 77.6066 2.90333 77.7866 3.03C77.9732 3.15 78.1332 3.31 78.2666 3.51C78.3999 3.71 78.4966 3.95333 78.5566 4.24H77.6866C77.5866 3.94667 77.4266 3.73667 77.2066 3.61C76.9932 3.48333 76.7399 3.42333 76.4466 3.43C76.1599 3.43 75.9066 3.48667 75.6866 3.6C75.4732 3.70667 75.2999 3.85 75.1666 4.03C75.0399 4.21 74.9466 4.42 74.8866 4.66C74.8266 4.89333 74.7966 5.13333 74.7966 5.38C74.7966 5.64 74.8266 5.88667 74.8866 6.12C74.9532 6.35333 75.0499 6.56 75.1766 6.74C75.3099 6.91333 75.4799 7.05333 75.6866 7.16C75.8932 7.26 76.1399 7.31 76.4266 7.31C76.5666 7.31 76.7032 7.29667 76.8366 7.27C76.9766 7.24333 77.1032 7.2 77.2166 7.14C77.3366 7.07333 77.4399 6.98667 77.5266 6.88C77.6132 6.77333 77.6766 6.64333 77.7166 6.49H78.5966C78.5432 6.76333 78.4466 7 78.3066 7.2C78.1732 7.39333 78.0066 7.55667 77.8066 7.69C77.6066 7.81667 77.3866 7.91 77.1466 7.97C76.9066 8.03 76.6566 8.06 76.3966 8.06ZM80.5039 8H79.6739V2.73H80.5239V6.77C80.5706 6.67667 80.6339 6.57667 80.7139 6.47C80.7939 6.35667 80.8572 6.27 80.9039 6.21L83.4539 2.73H84.2939V8H83.4439V3.96C83.3906 4.06 83.3306 4.15667 83.2639 4.25C83.2039 4.33667 83.1472 4.41333 83.0939 4.48L80.5039 8ZM86.2909 5.68C86.3109 5.91333 86.3576 6.13 86.4309 6.33C86.5109 6.52333 86.6176 6.69333 86.7509 6.84C86.8843 6.98667 87.0476 7.10333 87.2409 7.19C87.4409 7.27 87.6709 7.31 87.9309 7.31C88.0576 7.31 88.1876 7.3 88.3209 7.28C88.4609 7.25333 88.5909 7.21333 88.7109 7.16C88.8309 7.1 88.9376 7.02333 89.0309 6.93C89.1243 6.83667 89.1943 6.72333 89.2409 6.59H90.1109C90.0509 6.84333 89.9476 7.06333 89.8009 7.25C89.6609 7.43667 89.4909 7.59 89.2909 7.71C89.0976 7.83 88.8809 7.92 88.6409 7.98C88.4009 8.03333 88.1576 8.06 87.9109 8.06C87.4909 8.06 87.1243 7.99333 86.8109 7.86C86.5043 7.72667 86.2476 7.54333 86.0409 7.31C85.8343 7.07 85.6809 6.78667 85.5809 6.46C85.4809 6.12667 85.4309 5.76333 85.4309 5.37C85.4309 4.97667 85.4843 4.61667 85.5909 4.29C85.7043 3.95667 85.8643 3.67 86.0709 3.43C86.2776 3.19 86.5309 3.00333 86.8309 2.87C87.1309 2.73667 87.4876 2.67 87.9009 2.67C88.3209 2.67 88.6843 2.75333 88.9909 2.92C89.2976 3.08667 89.5443 3.30667 89.7309 3.58C89.9176 3.84667 90.0476 4.13667 90.1209 4.45C90.2009 4.76333 90.2343 5.05333 90.2209 5.32C90.2209 5.38 90.2176 5.44 90.2109 5.5C90.2109 5.56 90.2076 5.62 90.2009 5.68H86.2909ZM89.3609 4.94C89.3476 4.49333 89.2076 4.13 88.9409 3.85C88.6743 3.57 88.3176 3.43 87.8709 3.43C87.6243 3.43 87.4076 3.47 87.2209 3.55C87.0343 3.63 86.8776 3.74 86.7509 3.88C86.6243 4.02 86.5243 4.18333 86.4509 4.37C86.3776 4.55 86.3309 4.74 86.3109 4.94H89.3609ZM94.0587 8V2.73H94.9087V5.04H97.5487V2.73H98.3987V8H97.5487V5.79H94.9087V8H94.0587ZM103.212 7.33C103.099 7.48333 102.969 7.60667 102.822 7.7C102.676 7.79333 102.522 7.86667 102.362 7.92C102.209 7.97333 102.052 8.01 101.892 8.03C101.739 8.05 101.586 8.06 101.432 8.06C101.186 8.06 100.952 8.03 100.732 7.97C100.512 7.91 100.312 7.81333 100.132 7.68C99.9589 7.54667 99.8189 7.38 99.7123 7.18C99.6123 6.98 99.5623 6.75333 99.5623 6.5C99.5623 6.2 99.6156 5.95 99.7223 5.75C99.8356 5.54333 99.9856 5.37667 100.172 5.25C100.359 5.12333 100.572 5.03667 100.812 4.99C101.059 4.93667 101.319 4.91 101.592 4.91H103.142C103.142 4.46333 103.046 4.11 102.852 3.85C102.659 3.58333 102.332 3.44333 101.872 3.43C101.592 3.43 101.346 3.47667 101.132 3.57C100.919 3.66333 100.772 3.81667 100.692 4.03H99.7823C99.8289 3.79 99.9223 3.58667 100.062 3.42C100.202 3.24667 100.369 3.10667 100.562 3C100.756 2.88667 100.966 2.80333 101.192 2.75C101.419 2.69667 101.646 2.67 101.872 2.67C102.266 2.67 102.596 2.73667 102.862 2.87C103.136 2.99667 103.356 3.16667 103.522 3.38C103.689 3.58667 103.806 3.84 103.872 4.14C103.939 4.44 103.972 4.77667 103.972 5.15V8H103.262L103.212 7.33ZM102.212 5.62C102.052 5.62 101.866 5.62333 101.652 5.63C101.446 5.63 101.246 5.65 101.052 5.69C100.859 5.73 100.702 5.81333 100.582 5.94C100.469 6.06667 100.412 6.23333 100.412 6.44C100.412 6.59333 100.442 6.72333 100.502 6.83C100.562 6.93667 100.642 7.02667 100.742 7.1C100.849 7.17333 100.969 7.22667 101.102 7.26C101.236 7.29333 101.372 7.31 101.512 7.31C102.012 7.31 102.406 7.19 102.692 6.95C102.986 6.70333 103.136 6.34667 103.142 5.88V5.62H102.212Z" fill="black"/>
<path d="M110.304 2.67C110.724 2.67 111.088 2.73667 111.394 2.87C111.701 3.00333 111.958 3.19 112.164 3.43C112.378 3.67 112.534 3.95667 112.634 4.29C112.741 4.61667 112.794 4.97667 112.794 5.37C112.794 5.76333 112.741 6.12667 112.634 6.46C112.534 6.78667 112.378 7.07 112.164 7.31C111.958 7.54333 111.698 7.72667 111.384 7.86C111.071 7.99333 110.704 8.06 110.284 8.06C109.864 8.06 109.498 7.99333 109.184 7.86C108.878 7.72667 108.618 7.54333 108.404 7.31C108.198 7.07 108.041 6.78667 107.934 6.46C107.834 6.12667 107.784 5.76333 107.784 5.37C107.784 4.97667 107.834 4.61667 107.934 4.29C108.041 3.95667 108.198 3.67 108.404 3.43C108.618 3.19 108.881 3.00333 109.194 2.87C109.508 2.73667 109.878 2.67 110.304 2.67ZM110.284 7.31C110.571 7.31 110.818 7.26 111.024 7.16C111.238 7.06 111.411 6.92333 111.544 6.75C111.684 6.57 111.784 6.36333 111.844 6.13C111.911 5.89667 111.944 5.64333 111.944 5.37C111.944 5.10333 111.911 4.85333 111.844 4.62C111.784 4.38 111.684 4.17333 111.544 4C111.411 3.82 111.238 3.68 111.024 3.58C110.818 3.48 110.571 3.43 110.284 3.43C109.998 3.43 109.751 3.48 109.544 3.58C109.338 3.68 109.164 3.82 109.024 4C108.891 4.17333 108.791 4.38 108.724 4.62C108.664 4.85333 108.634 5.10333 108.634 5.37C108.634 5.64333 108.664 5.89667 108.724 6.13C108.791 6.36333 108.891 6.57 109.024 6.75C109.164 6.92333 109.338 7.06 109.544 7.16C109.751 7.26 109.998 7.31 110.284 7.31ZM114.669 3.92C114.769 3.78 114.886 3.66333 115.019 3.57C115.153 3.47 115.296 3.38667 115.449 3.32C115.609 3.25333 115.769 3.20667 115.929 3.18C116.096 3.14667 116.256 3.13 116.409 3.13C116.769 3.13 117.086 3.18667 117.359 3.3C117.639 3.41333 117.873 3.57667 118.059 3.79C118.253 3.99667 118.399 4.24667 118.499 4.54C118.599 4.83333 118.649 5.16 118.649 5.52C118.649 5.88 118.596 6.21667 118.489 6.53C118.383 6.83667 118.226 7.10333 118.019 7.33C117.819 7.55667 117.569 7.73667 117.269 7.87C116.976 7.99667 116.636 8.06 116.249 8.06C115.809 8.06 115.439 7.98333 115.139 7.83C114.839 7.67 114.596 7.46 114.409 7.2C114.229 6.93333 114.096 6.61667 114.009 6.25C113.923 5.88333 113.876 5.52333 113.869 5.17C113.856 5.06333 113.849 4.85 113.849 4.53C113.856 4.20333 113.873 3.91 113.899 3.65C113.926 3.38333 113.969 3.12667 114.029 2.88C114.096 2.62667 114.186 2.40333 114.299 2.21C114.479 1.89 114.706 1.65333 114.979 1.5C115.259 1.34667 115.579 1.24 115.939 1.18C116.053 1.16 116.306 1.12333 116.699 1.07C117.099 1.01 117.373 0.97 117.519 0.95C117.646 0.936666 117.783 0.92 117.929 0.9C118.083 0.873333 118.233 0.846666 118.379 0.819999V1.6C118.279 1.63333 118.156 1.66333 118.009 1.69C117.863 1.71 117.696 1.73 117.509 1.75C117.376 1.77 117.236 1.79 117.089 1.81C116.949 1.82333 116.803 1.84 116.649 1.86C116.503 1.87333 116.276 1.90333 115.969 1.95C115.743 1.98333 115.556 2.04667 115.409 2.14C115.269 2.23333 115.146 2.35667 115.039 2.51C114.913 2.69667 114.819 2.92333 114.759 3.19C114.706 3.45 114.676 3.69333 114.669 3.92ZM116.269 7.31C116.516 7.31 116.733 7.26333 116.919 7.17C117.113 7.07667 117.273 6.95 117.399 6.79C117.533 6.63 117.633 6.44333 117.699 6.23C117.766 6.01667 117.799 5.79 117.799 5.55C117.799 5.31667 117.763 5.1 117.689 4.9C117.623 4.69333 117.526 4.51667 117.399 4.37C117.273 4.21667 117.119 4.1 116.939 4.02C116.759 3.93333 116.539 3.89 116.279 3.89C116.039 3.89667 115.826 3.94333 115.639 4.03C115.453 4.11667 115.293 4.24 115.159 4.4C115.026 4.55333 114.926 4.73333 114.859 4.94C114.793 5.14 114.756 5.35 114.749 5.57C114.749 5.80333 114.779 6.02667 114.839 6.24C114.906 6.44667 115.003 6.63 115.129 6.79C115.256 6.95 115.413 7.07667 115.599 7.17C115.793 7.26333 116.016 7.31 116.269 7.31ZM120.641 9.9H119.791V2.73H120.601L120.641 3.54C120.821 3.25333 121.064 3.04 121.371 2.9C121.684 2.75333 122.021 2.67667 122.381 2.67C122.788 2.67 123.131 2.74 123.411 2.88C123.698 3.01333 123.934 3.20333 124.121 3.45C124.314 3.69 124.458 3.97667 124.551 4.31C124.644 4.63667 124.691 4.99 124.691 5.37C124.691 5.75667 124.644 6.11333 124.551 6.44C124.458 6.76667 124.314 7.05 124.121 7.29C123.928 7.53 123.684 7.72 123.391 7.86C123.098 7.99333 122.748 8.06 122.341 8.06C121.941 8.06 121.601 7.99667 121.321 7.87C121.041 7.74333 120.814 7.57667 120.641 7.37V9.9ZM122.271 7.31C122.558 7.31 122.798 7.26 122.991 7.16C123.191 7.05333 123.351 6.91333 123.471 6.74C123.598 6.56 123.688 6.35333 123.741 6.12C123.801 5.88667 123.834 5.63667 123.841 5.37C123.841 5.10333 123.811 4.85333 123.751 4.62C123.698 4.38 123.608 4.17333 123.481 4C123.354 3.82667 123.188 3.69 122.981 3.59C122.781 3.48333 122.538 3.43 122.251 3.43C121.911 3.43 121.618 3.52333 121.371 3.71C121.124 3.89 120.938 4.12 120.811 4.4C120.738 4.55333 120.688 4.71333 120.661 4.88C120.634 5.04 120.621 5.20667 120.621 5.38C120.621 5.58 120.634 5.76667 120.661 5.94C120.688 6.10667 120.738 6.26667 120.811 6.42C120.938 6.67333 121.121 6.88667 121.361 7.06C121.608 7.22667 121.911 7.31 122.271 7.31ZM129.257 7.33C129.144 7.48333 129.014 7.60667 128.867 7.7C128.721 7.79333 128.567 7.86667 128.407 7.92C128.254 7.97333 128.097 8.01 127.937 8.03C127.784 8.05 127.631 8.06 127.477 8.06C127.231 8.06 126.997 8.03 126.777 7.97C126.557 7.91 126.357 7.81333 126.177 7.68C126.004 7.54667 125.864 7.38 125.757 7.18C125.657 6.98 125.607 6.75333 125.607 6.5C125.607 6.2 125.661 5.95 125.767 5.75C125.881 5.54333 126.031 5.37667 126.217 5.25C126.404 5.12333 126.617 5.03667 126.857 4.99C127.104 4.93667 127.364 4.91 127.637 4.91H129.187C129.187 4.46333 129.091 4.11 128.897 3.85C128.704 3.58333 128.377 3.44333 127.917 3.43C127.637 3.43 127.391 3.47667 127.177 3.57C126.964 3.66333 126.817 3.81667 126.737 4.03H125.827C125.874 3.79 125.967 3.58667 126.107 3.42C126.247 3.24667 126.414 3.10667 126.607 3C126.801 2.88667 127.011 2.80333 127.237 2.75C127.464 2.69667 127.691 2.67 127.917 2.67C128.311 2.67 128.641 2.73667 128.907 2.87C129.181 2.99667 129.401 3.16667 129.567 3.38C129.734 3.58667 129.851 3.84 129.917 4.14C129.984 4.44 130.017 4.77667 130.017 5.15V8H129.307L129.257 7.33ZM128.257 5.62C128.097 5.62 127.911 5.62333 127.697 5.63C127.491 5.63 127.291 5.65 127.097 5.69C126.904 5.73 126.747 5.81333 126.627 5.94C126.514 6.06667 126.457 6.23333 126.457 6.44C126.457 6.59333 126.487 6.72333 126.547 6.83C126.607 6.93667 126.687 7.02667 126.787 7.1C126.894 7.17333 127.014 7.22667 127.147 7.26C127.281 7.29333 127.417 7.31 127.557 7.31C128.057 7.31 128.451 7.19 128.737 6.95C129.031 6.70333 129.181 6.34667 129.187 5.88V5.62H128.257ZM131.974 3.92C132.074 3.78 132.191 3.66333 132.324 3.57C132.457 3.47 132.601 3.38667 132.754 3.32C132.914 3.25333 133.074 3.20667 133.234 3.18C133.401 3.14667 133.561 3.13 133.714 3.13C134.074 3.13 134.391 3.18667 134.664 3.3C134.944 3.41333 135.177 3.57667 135.364 3.79C135.557 3.99667 135.704 4.24667 135.804 4.54C135.904 4.83333 135.954 5.16 135.954 5.52C135.954 5.88 135.901 6.21667 135.794 6.53C135.687 6.83667 135.531 7.10333 135.324 7.33C135.124 7.55667 134.874 7.73667 134.574 7.87C134.281 7.99667 133.941 8.06 133.554 8.06C133.114 8.06 132.744 7.98333 132.444 7.83C132.144 7.67 131.901 7.46 131.714 7.2C131.534 6.93333 131.401 6.61667 131.314 6.25C131.227 5.88333 131.181 5.52333 131.174 5.17C131.161 5.06333 131.154 4.85 131.154 4.53C131.161 4.20333 131.177 3.91 131.204 3.65C131.231 3.38333 131.274 3.12667 131.334 2.88C131.401 2.62667 131.491 2.40333 131.604 2.21C131.784 1.89 132.011 1.65333 132.284 1.5C132.564 1.34667 132.884 1.24 133.244 1.18C133.357 1.16 133.611 1.12333 134.004 1.07C134.404 1.01 134.677 0.97 134.824 0.95C134.951 0.936666 135.087 0.92 135.234 0.9C135.387 0.873333 135.537 0.846666 135.684 0.819999V1.6C135.584 1.63333 135.461 1.66333 135.314 1.69C135.167 1.71 135.001 1.73 134.814 1.75C134.681 1.77 134.541 1.79 134.394 1.81C134.254 1.82333 134.107 1.84 133.954 1.86C133.807 1.87333 133.581 1.90333 133.274 1.95C133.047 1.98333 132.861 2.04667 132.714 2.14C132.574 2.23333 132.451 2.35667 132.344 2.51C132.217 2.69667 132.124 2.92333 132.064 3.19C132.011 3.45 131.981 3.69333 131.974 3.92ZM133.574 7.31C133.821 7.31 134.037 7.26333 134.224 7.17C134.417 7.07667 134.577 6.95 134.704 6.79C134.837 6.63 134.937 6.44333 135.004 6.23C135.071 6.01667 135.104 5.79 135.104 5.55C135.104 5.31667 135.067 5.1 134.994 4.9C134.927 4.69333 134.831 4.51667 134.704 4.37C134.577 4.21667 134.424 4.1 134.244 4.02C134.064 3.93333 133.844 3.89 133.584 3.89C133.344 3.89667 133.131 3.94333 132.944 4.03C132.757 4.11667 132.597 4.24 132.464 4.4C132.331 4.55333 132.231 4.73333 132.164 4.94C132.097 5.14 132.061 5.35 132.054 5.57C132.054 5.80333 132.084 6.02667 132.144 6.24C132.211 6.44667 132.307 6.63 132.434 6.79C132.561 6.95 132.717 7.07667 132.904 7.17C133.097 7.26333 133.321 7.31 133.574 7.31ZM139.416 2.67C139.836 2.67 140.199 2.73667 140.506 2.87C140.812 3.00333 141.069 3.19 141.276 3.43C141.489 3.67 141.646 3.95667 141.746 4.29C141.852 4.61667 141.906 4.97667 141.906 5.37C141.906 5.76333 141.852 6.12667 141.746 6.46C141.646 6.78667 141.489 7.07 141.276 7.31C141.069 7.54333 140.809 7.72667 140.496 7.86C140.182 7.99333 139.816 8.06 139.396 8.06C138.976 8.06 138.609 7.99333 138.296 7.86C137.989 7.72667 137.729 7.54333 137.516 7.31C137.309 7.07 137.152 6.78667 137.046 6.46C136.946 6.12667 136.896 5.76333 136.896 5.37C136.896 4.97667 136.946 4.61667 137.046 4.29C137.152 3.95667 137.309 3.67 137.516 3.43C137.729 3.19 137.992 3.00333 138.306 2.87C138.619 2.73667 138.989 2.67 139.416 2.67ZM139.396 7.31C139.682 7.31 139.929 7.26 140.136 7.16C140.349 7.06 140.522 6.92333 140.656 6.75C140.796 6.57 140.896 6.36333 140.956 6.13C141.022 5.89667 141.056 5.64333 141.056 5.37C141.056 5.10333 141.022 4.85333 140.956 4.62C140.896 4.38 140.796 4.17333 140.656 4C140.522 3.82 140.349 3.68 140.136 3.58C139.929 3.48 139.682 3.43 139.396 3.43C139.109 3.43 138.862 3.48 138.656 3.58C138.449 3.68 138.276 3.82 138.136 4C138.002 4.17333 137.902 4.38 137.836 4.62C137.776 4.85333 137.746 5.10333 137.746 5.37C137.746 5.64333 137.776 5.89667 137.836 6.13C137.902 6.36333 138.002 6.57 138.136 6.75C138.276 6.92333 138.449 7.06 138.656 7.16C138.862 7.26 139.109 7.31 139.396 7.31ZM146.933 2.73V3.48H145.123V8H144.273V3.48H142.463V2.73H146.933ZM147.691 8V2.73H148.541V5H149.461L151.021 2.73H151.991L150.231 5.24L152.141 8H151.141L149.561 5.74H148.541V8H147.691ZM156.667 2.73H157.627L156.137 6.88C156.057 7.09333 155.97 7.33667 155.877 7.61C155.79 7.87667 155.69 8.14333 155.577 8.41C155.47 8.68333 155.347 8.94 155.207 9.18C155.074 9.42 154.924 9.61333 154.757 9.76C154.51 9.98 154.274 10.1167 154.047 10.17C153.82 10.23 153.564 10.26 153.277 10.26H153.097V9.45C153.337 9.45 153.54 9.42333 153.707 9.37C153.874 9.32333 154.017 9.24667 154.137 9.14C154.264 9.03333 154.37 8.9 154.457 8.74C154.55 8.58 154.644 8.39 154.737 8.17L152.377 2.73H153.377L155.207 7.17L156.667 2.73ZM161.109 8V2.73H165.479V8H164.629V3.48H161.959V8H161.109ZM167.482 5.68C167.502 5.91333 167.549 6.13 167.622 6.33C167.702 6.52333 167.809 6.69333 167.942 6.84C168.076 6.98667 168.239 7.10333 168.432 7.19C168.632 7.27 168.862 7.31 169.122 7.31C169.249 7.31 169.379 7.3 169.512 7.28C169.652 7.25333 169.782 7.21333 169.902 7.16C170.022 7.1 170.129 7.02333 170.222 6.93C170.316 6.83667 170.386 6.72333 170.432 6.59H171.302C171.242 6.84333 171.139 7.06333 170.992 7.25C170.852 7.43667 170.682 7.59 170.482 7.71C170.289 7.83 170.072 7.92 169.832 7.98C169.592 8.03333 169.349 8.06 169.102 8.06C168.682 8.06 168.316 7.99333 168.002 7.86C167.696 7.72667 167.439 7.54333 167.232 7.31C167.026 7.07 166.872 6.78667 166.772 6.46C166.672 6.12667 166.622 5.76333 166.622 5.37C166.622 4.97667 166.676 4.61667 166.782 4.29C166.896 3.95667 167.056 3.67 167.262 3.43C167.469 3.19 167.722 3.00333 168.022 2.87C168.322 2.73667 168.679 2.67 169.092 2.67C169.512 2.67 169.876 2.75333 170.182 2.92C170.489 3.08667 170.736 3.30667 170.922 3.58C171.109 3.84667 171.239 4.13667 171.312 4.45C171.392 4.76333 171.426 5.05333 171.412 5.32C171.412 5.38 171.409 5.44 171.402 5.5C171.402 5.56 171.399 5.62 171.392 5.68H167.482ZM170.552 4.94C170.539 4.49333 170.399 4.13 170.132 3.85C169.866 3.57 169.509 3.43 169.062 3.43C168.816 3.43 168.599 3.47 168.412 3.55C168.226 3.63 168.069 3.74 167.942 3.88C167.816 4.02 167.716 4.18333 167.642 4.37C167.569 4.55 167.522 4.74 167.502 4.94H170.552ZM173.405 9.9H172.555V2.73H173.365L173.405 3.54C173.585 3.25333 173.828 3.04 174.135 2.9C174.448 2.75333 174.785 2.67667 175.145 2.67C175.551 2.67 175.895 2.74 176.175 2.88C176.461 3.01333 176.698 3.20333 176.885 3.45C177.078 3.69 177.221 3.97667 177.315 4.31C177.408 4.63667 177.455 4.99 177.455 5.37C177.455 5.75667 177.408 6.11333 177.315 6.44C177.221 6.76667 177.078 7.05 176.885 7.29C176.691 7.53 176.448 7.72 176.155 7.86C175.861 7.99333 175.511 8.06 175.105 8.06C174.705 8.06 174.365 7.99667 174.085 7.87C173.805 7.74333 173.578 7.57667 173.405 7.37V9.9ZM175.035 7.31C175.321 7.31 175.561 7.26 175.755 7.16C175.955 7.05333 176.115 6.91333 176.235 6.74C176.361 6.56 176.451 6.35333 176.505 6.12C176.565 5.88667 176.598 5.63667 176.605 5.37C176.605 5.10333 176.575 4.85333 176.515 4.62C176.461 4.38 176.371 4.17333 176.245 4C176.118 3.82667 175.951 3.69 175.745 3.59C175.545 3.48333 175.301 3.43 175.015 3.43C174.675 3.43 174.381 3.52333 174.135 3.71C173.888 3.89 173.701 4.12 173.575 4.4C173.501 4.55333 173.451 4.71333 173.425 4.88C173.398 5.04 173.385 5.20667 173.385 5.38C173.385 5.58 173.398 5.76667 173.425 5.94C173.451 6.10667 173.501 6.26667 173.575 6.42C173.701 6.67333 173.885 6.88667 174.125 7.06C174.371 7.22667 174.675 7.31 175.035 7.31ZM180.899 8.06C180.479 8.06 180.115 7.99333 179.809 7.86C179.502 7.72667 179.249 7.54 179.049 7.3C178.849 7.06 178.699 6.77667 178.599 6.45C178.499 6.12333 178.449 5.76667 178.449 5.38C178.449 5.00667 178.502 4.65667 178.609 4.33C178.715 3.99667 178.872 3.71 179.079 3.47C179.285 3.22333 179.545 3.03 179.859 2.89C180.172 2.74333 180.552 2.67 180.999 2.67C181.265 2.67 181.502 2.7 181.709 2.76C181.915 2.81333 182.109 2.90333 182.289 3.03C182.475 3.15 182.635 3.31 182.769 3.51C182.902 3.71 182.999 3.95333 183.059 4.24H182.189C182.089 3.94667 181.929 3.73667 181.709 3.61C181.495 3.48333 181.242 3.42333 180.949 3.43C180.662 3.43 180.409 3.48667 180.189 3.6C179.975 3.70667 179.802 3.85 179.669 4.03C179.542 4.21 179.449 4.42 179.389 4.66C179.329 4.89333 179.299 5.13333 179.299 5.38C179.299 5.64 179.329 5.88667 179.389 6.12C179.455 6.35333 179.552 6.56 179.679 6.74C179.812 6.91333 179.982 7.05333 180.189 7.16C180.395 7.26 180.642 7.31 180.929 7.31C181.069 7.31 181.205 7.29667 181.339 7.27C181.479 7.24333 181.605 7.2 181.719 7.14C181.839 7.07333 181.942 6.98667 182.029 6.88C182.115 6.77333 182.179 6.64333 182.219 6.49H183.099C183.045 6.76333 182.949 7 182.809 7.2C182.675 7.39333 182.509 7.55667 182.309 7.69C182.109 7.81667 181.889 7.91 181.649 7.97C181.409 8.03 181.159 8.06 180.899 8.06ZM186.496 2.67C186.916 2.67 187.279 2.73667 187.586 2.87C187.893 3.00333 188.149 3.19 188.356 3.43C188.569 3.67 188.726 3.95667 188.826 4.29C188.933 4.61667 188.986 4.97667 188.986 5.37C188.986 5.76333 188.933 6.12667 188.826 6.46C188.726 6.78667 188.569 7.07 188.356 7.31C188.149 7.54333 187.889 7.72667 187.576 7.86C187.263 7.99333 186.896 8.06 186.476 8.06C186.056 8.06 185.689 7.99333 185.376 7.86C185.069 7.72667 184.809 7.54333 184.596 7.31C184.389 7.07 184.233 6.78667 184.126 6.46C184.026 6.12667 183.976 5.76333 183.976 5.37C183.976 4.97667 184.026 4.61667 184.126 4.29C184.233 3.95667 184.389 3.67 184.596 3.43C184.809 3.19 185.073 3.00333 185.386 2.87C185.699 2.73667 186.069 2.67 186.496 2.67ZM186.476 7.31C186.763 7.31 187.009 7.26 187.216 7.16C187.429 7.06 187.603 6.92333 187.736 6.75C187.876 6.57 187.976 6.36333 188.036 6.13C188.103 5.89667 188.136 5.64333 188.136 5.37C188.136 5.10333 188.103 4.85333 188.036 4.62C187.976 4.38 187.876 4.17333 187.736 4C187.603 3.82 187.429 3.68 187.216 3.58C187.009 3.48 186.763 3.43 186.476 3.43C186.189 3.43 185.943 3.48 185.736 3.58C185.529 3.68 185.356 3.82 185.216 4C185.083 4.17333 184.983 4.38 184.916 4.62C184.856 4.85333 184.826 5.10333 184.826 5.37C184.826 5.64333 184.856 5.89667 184.916 6.13C184.983 6.36333 185.083 6.57 185.216 6.75C185.356 6.92333 185.529 7.06 185.736 7.16C185.943 7.26 186.189 7.31 186.476 7.31ZM190.123 8V2.73H190.973V5.04H193.613V2.73H194.463V8H193.613V5.79H190.973V8H190.123ZM199.277 7.33C199.163 7.48333 199.033 7.60667 198.887 7.7C198.74 7.79333 198.587 7.86667 198.427 7.92C198.273 7.97333 198.117 8.01 197.957 8.03C197.803 8.05 197.65 8.06 197.497 8.06C197.25 8.06 197.017 8.03 196.797 7.97C196.577 7.91 196.377 7.81333 196.197 7.68C196.023 7.54667 195.883 7.38 195.777 7.18C195.677 6.98 195.627 6.75333 195.627 6.5C195.627 6.2 195.68 5.95 195.787 5.75C195.9 5.54333 196.05 5.37667 196.237 5.25C196.423 5.12333 196.637 5.03667 196.877 4.99C197.123 4.93667 197.383 4.91 197.657 4.91H199.207C199.207 4.46333 199.11 4.11 198.917 3.85C198.723 3.58333 198.397 3.44333 197.937 3.43C197.657 3.43 197.41 3.47667 197.197 3.57C196.983 3.66333 196.837 3.81667 196.757 4.03H195.847C195.893 3.79 195.987 3.58667 196.127 3.42C196.267 3.24667 196.433 3.10667 196.627 3C196.82 2.88667 197.03 2.80333 197.257 2.75C197.483 2.69667 197.71 2.67 197.937 2.67C198.33 2.67 198.66 2.73667 198.927 2.87C199.2 2.99667 199.42 3.16667 199.587 3.38C199.753 3.58667 199.87 3.84 199.937 4.14C200.003 4.44 200.037 4.77667 200.037 5.15V8H199.327L199.277 7.33ZM198.277 5.62C198.117 5.62 197.93 5.62333 197.717 5.63C197.51 5.63 197.31 5.65 197.117 5.69C196.923 5.73 196.767 5.81333 196.647 5.94C196.533 6.06667 196.477 6.23333 196.477 6.44C196.477 6.59333 196.507 6.72333 196.567 6.83C196.627 6.93667 196.707 7.02667 196.807 7.1C196.913 7.17333 197.033 7.22667 197.167 7.26C197.3 7.29333 197.437 7.31 197.577 7.31C198.077 7.31 198.47 7.19 198.757 6.95C199.05 6.70333 199.2 6.34667 199.207 5.88V5.62H198.277ZM201.844 5.53C201.877 5.05 201.9 4.58333 201.914 4.13C201.934 3.67667 201.947 3.21 201.954 2.73H205.614V8H204.764V3.48H202.784L202.694 5.55C202.68 5.81667 202.65 6.11667 202.604 6.45C202.557 6.78333 202.46 7.08667 202.314 7.36C202.2 7.55333 202.047 7.71 201.854 7.83C201.66 7.95 201.437 8.01 201.184 8.01H200.874V7.26C201.14 7.26 201.354 7.14667 201.514 6.92C201.607 6.78667 201.68 6.59333 201.734 6.34C201.787 6.08667 201.824 5.81667 201.844 5.53ZM206.949 2.73H207.819V4.74H208.979C209.279 4.74 209.556 4.76333 209.809 4.81C210.063 4.85 210.283 4.93667 210.469 5.07C210.649 5.20333 210.786 5.37333 210.879 5.58C210.979 5.78 211.029 6.03 211.029 6.33C211.023 6.63 210.969 6.88 210.869 7.08C210.769 7.27333 210.643 7.43667 210.489 7.57C210.309 7.72333 210.083 7.83333 209.809 7.9C209.543 7.96667 209.269 8 208.989 8H206.949V2.73ZM208.319 7.26C208.573 7.26 208.826 7.25667 209.079 7.25C209.333 7.23667 209.553 7.18333 209.739 7.09C209.866 7.03667 209.966 6.94667 210.039 6.82C210.119 6.68667 210.163 6.53333 210.169 6.36C210.169 6.15333 210.126 5.99 210.039 5.87C209.959 5.75 209.853 5.66333 209.719 5.61C209.593 5.55 209.449 5.51333 209.289 5.5C209.129 5.48667 208.973 5.48 208.819 5.48H207.819V7.26H208.319ZM212.135 8V2.73H212.985V5.04H215.625V2.73H216.475V8H215.625V5.79H212.985V8H212.135ZM217.818 2.73H218.688V4.74H219.638C219.938 4.74 220.212 4.76333 220.458 4.81C220.712 4.85 220.935 4.93667 221.128 5.07C221.308 5.20333 221.445 5.37333 221.538 5.58C221.638 5.78 221.688 6.03 221.688 6.33C221.675 6.63 221.618 6.88 221.518 7.08C221.425 7.27333 221.302 7.43667 221.148 7.57C220.962 7.72333 220.735 7.83333 220.468 7.9C220.202 7.96667 219.928 8 219.648 8H217.818V2.73ZM222.418 8V2.73H223.268V8H222.418ZM218.968 7.26C219.222 7.26 219.475 7.25667 219.728 7.25C219.988 7.23667 220.212 7.18333 220.398 7.09C220.525 7.03667 220.625 6.94667 220.698 6.82C220.778 6.68667 220.822 6.53333 220.828 6.36C220.828 6.15333 220.785 5.99 220.698 5.87C220.618 5.75 220.512 5.66333 220.378 5.61C220.252 5.55 220.108 5.51333 219.948 5.5C219.788 5.48667 219.632 5.48 219.478 5.48H218.688V7.26H218.968ZM226.476 5.99L225.036 8H224.076L225.956 5.31L224.166 2.73H225.186L226.526 4.73L227.826 2.73H228.816L227.036 5.34L228.946 8H227.936L226.476 5.99ZM233.047 3.89C233.054 3.69667 233.057 3.50333 233.057 3.31C233.057 3.11667 233.057 2.92333 233.057 2.73H236.797V7.26H237.487V9.62H236.667V8H232.817V9.62H231.997V7.26C232.264 7.26 232.474 7.14 232.627 6.9C232.721 6.76667 232.794 6.57667 232.847 6.33C232.901 6.07667 232.941 5.81 232.967 5.53C233.001 5.22333 233.021 4.92 233.027 4.62C233.041 4.31333 233.047 4.07 233.047 3.89ZM235.947 3.48H233.867C233.861 3.76 233.854 4.07333 233.847 4.42C233.841 4.76667 233.827 5.09 233.807 5.39C233.801 5.52333 233.791 5.67 233.777 5.83C233.764 5.98333 233.741 6.14333 233.707 6.31C233.681 6.47 233.637 6.63333 233.577 6.8C233.524 6.96667 233.447 7.12 233.347 7.26H235.947V3.48ZM241.845 7.33C241.732 7.48333 241.602 7.60667 241.455 7.7C241.308 7.79333 241.155 7.86667 240.995 7.92C240.842 7.97333 240.685 8.01 240.525 8.03C240.372 8.05 240.218 8.06 240.065 8.06C239.818 8.06 239.585 8.03 239.365 7.97C239.145 7.91 238.945 7.81333 238.765 7.68C238.592 7.54667 238.452 7.38 238.345 7.18C238.245 6.98 238.195 6.75333 238.195 6.5C238.195 6.2 238.248 5.95 238.355 5.75C238.468 5.54333 238.618 5.37667 238.805 5.25C238.992 5.12333 239.205 5.03667 239.445 4.99C239.692 4.93667 239.952 4.91 240.225 4.91H241.775C241.775 4.46333 241.678 4.11 241.485 3.85C241.292 3.58333 240.965 3.44333 240.505 3.43C240.225 3.43 239.978 3.47667 239.765 3.57C239.552 3.66333 239.405 3.81667 239.325 4.03H238.415C238.462 3.79 238.555 3.58667 238.695 3.42C238.835 3.24667 239.002 3.10667 239.195 3C239.388 2.88667 239.598 2.80333 239.825 2.75C240.052 2.69667 240.278 2.67 240.505 2.67C240.898 2.67 241.228 2.73667 241.495 2.87C241.768 2.99667 241.988 3.16667 242.155 3.38C242.322 3.58667 242.438 3.84 242.505 4.14C242.572 4.44 242.605 4.77667 242.605 5.15V8H241.895L241.845 7.33ZM240.845 5.62C240.685 5.62 240.498 5.62333 240.285 5.63C240.078 5.63 239.878 5.65 239.685 5.69C239.492 5.73 239.335 5.81333 239.215 5.94C239.102 6.06667 239.045 6.23333 239.045 6.44C239.045 6.59333 239.075 6.72333 239.135 6.83C239.195 6.93667 239.275 7.02667 239.375 7.1C239.482 7.17333 239.602 7.22667 239.735 7.26C239.868 7.29333 240.005 7.31 240.145 7.31C240.645 7.31 241.038 7.19 241.325 6.95C241.618 6.70333 241.768 6.34667 241.775 5.88V5.62H240.845ZM243.922 8V2.73H244.772V5.04H247.412V2.73H248.262V8H247.412V5.79H244.772V8H243.922ZM249.606 8V2.73H250.456V5.04H253.096V2.73H253.946V8H253.096V5.79H250.456V8H249.606ZM255.289 2.73H256.159V4.74H257.109C257.409 4.74 257.682 4.76333 257.929 4.81C258.182 4.85 258.406 4.93667 258.599 5.07C258.779 5.20333 258.916 5.37333 259.009 5.58C259.109 5.78 259.159 6.03 259.159 6.33C259.146 6.63 259.089 6.88 258.989 7.08C258.896 7.27333 258.772 7.43667 258.619 7.57C258.432 7.72333 258.206 7.83333 257.939 7.9C257.672 7.96667 257.399 8 257.119 8H255.289V2.73ZM259.889 8V2.73H260.739V8H259.889ZM256.439 7.26C256.692 7.26 256.946 7.25667 257.199 7.25C257.459 7.23667 257.682 7.18333 257.869 7.09C257.996 7.03667 258.096 6.94667 258.169 6.82C258.249 6.68667 258.292 6.53333 258.299 6.36C258.299 6.15333 258.256 5.99 258.169 5.87C258.089 5.75 257.982 5.66333 257.849 5.61C257.722 5.55 257.579 5.51333 257.419 5.5C257.259 5.48667 257.102 5.48 256.949 5.48H256.159V7.26H256.439ZM263.946 5.99L262.506 8H261.546L263.426 5.31L261.636 2.73H262.656L263.996 4.73L265.296 2.73H266.286L264.506 5.34L266.416 8H265.406L263.946 5.99ZM267.823 6.88C267.996 6.88 268.139 6.93667 268.253 7.05C268.366 7.16333 268.423 7.30667 268.423 7.48C268.423 7.65333 268.366 7.79667 268.253 7.91C268.139 8.02333 267.996 8.08 267.823 8.08C267.649 8.08 267.506 8.02333 267.393 7.91C267.279 7.79667 267.223 7.65333 267.223 7.48C267.223 7.30667 267.279 7.16333 267.393 7.05C267.506 6.93667 267.649 6.88 267.823 6.88ZM4.63 13.85C5.22333 13.85 5.76667 13.95 6.26 14.15C6.76 14.3433 7.18667 14.6233 7.54 14.99C7.9 15.35 8.18 15.79 8.38 16.31C8.58 16.8233 8.68 17.4 8.68 18.04C8.68 18.6867 8.58 19.27 8.38 19.79C8.18667 20.3033 7.91333 20.74 7.56 21.1C7.20667 21.46 6.78 21.7367 6.28 21.93C5.78 22.1233 5.23 22.22 4.63 22.22C4.03 22.22 3.48 22.1233 2.98 21.93C2.48667 21.7367 2.06 21.46 1.7 21.1C1.34667 20.74 1.07333 20.3033 0.88 19.79C0.686667 19.27 0.59 18.6867 0.59 18.04C0.59 17.4 0.69 16.8233 0.89 16.31C1.09 15.79 1.36667 15.35 1.72 14.99C2.08 14.6233 2.50667 14.3433 3 14.15C3.49333 13.95 4.03667 13.85 4.63 13.85ZM4.63 14.59C4.15667 14.59 3.72 14.67 3.32 14.83C2.92667 14.99 2.58667 15.22 2.3 15.52C2.01333 15.82 1.79 16.1833 1.63 16.61C1.47 17.0367 1.39 17.5133 1.39 18.04C1.39 18.5733 1.46667 19.0533 1.62 19.48C1.78 19.9 2 20.26 2.28 20.56C2.56667 20.8533 2.91 21.08 3.31 21.24C3.71 21.4 4.15 21.48 4.63 21.48C5.11 21.48 5.55 21.4 5.95 21.24C6.35 21.08 6.69 20.8533 6.97 20.56C7.25667 20.26 7.47667 19.9 7.63 19.48C7.79 19.0533 7.87 18.5733 7.87 18.04C7.87 17.5133 7.79 17.0367 7.63 16.61C7.47 16.1833 7.24667 15.82 6.96 15.52C6.67333 15.22 6.33 14.99 5.93 14.83C5.53667 14.67 5.10333 14.59 4.63 14.59ZM4.7 20.17C4.37333 20.17 4.08667 20.1167 3.84 20.01C3.6 19.9033 3.39667 19.7567 3.23 19.57C3.07 19.3767 2.95 19.15 2.87 18.89C2.79 18.63 2.75 18.3433 2.75 18.03C2.75 17.7233 2.79 17.44 2.87 17.18C2.95667 16.92 3.08 16.6967 3.24 16.51C3.4 16.3167 3.6 16.1667 3.84 16.06C4.08667 15.9533 4.37 15.9 4.69 15.9C5.17 15.9 5.56 16.0067 5.86 16.22C6.16 16.4267 6.35667 16.77 6.45 17.25H5.64C5.58 17.0167 5.46667 16.8567 5.3 16.77C5.13333 16.6767 4.93333 16.63 4.7 16.63C4.49333 16.63 4.31667 16.67 4.17 16.75C4.03 16.8233 3.91333 16.9233 3.82 17.05C3.73333 17.1767 3.66667 17.3267 3.62 17.5C3.58 17.6667 3.56 17.8433 3.56 18.03C3.56 18.2233 3.58 18.4067 3.62 18.58C3.66667 18.7467 3.73667 18.8933 3.83 19.02C3.92333 19.1467 4.04 19.25 4.18 19.33C4.32667 19.4033 4.50333 19.44 4.71 19.44C4.94333 19.44 5.14333 19.3967 5.31 19.31C5.48333 19.2167 5.6 19.0533 5.66 18.82H6.49C6.39667 19.28 6.19 19.62 5.87 19.84C5.55667 20.06 5.16667 20.17 4.7 20.17ZM15.7729 21.08C15.2196 21.08 14.7362 20.99 14.3229 20.81C13.9096 20.6233 13.5629 20.37 13.2829 20.05C13.0029 19.73 12.7929 19.35 12.6529 18.91C12.5129 18.47 12.4429 17.99 12.4429 17.47C12.4429 16.95 12.5129 16.47 12.6529 16.03C12.7929 15.5833 13.0029 15.2 13.2829 14.88C13.5629 14.56 13.9096 14.31 14.3229 14.13C14.7362 13.9433 15.2196 13.85 15.7729 13.85C16.3196 13.85 16.7996 13.9433 17.2129 14.13C17.6262 14.31 17.9729 14.56 18.2529 14.88C18.5329 15.2 18.7429 15.5833 18.8829 16.03C19.0229 16.47 19.0929 16.95 19.0929 17.47C19.0929 17.99 19.0229 18.47 18.8829 18.91C18.7429 19.35 18.5329 19.73 18.2529 20.05C17.9729 20.37 17.6262 20.6233 17.2129 20.81C16.7996 20.99 16.3196 21.08 15.7729 21.08ZM15.7729 14.64C15.3529 14.64 14.9896 14.7167 14.6829 14.87C14.3762 15.0167 14.1229 15.22 13.9229 15.48C13.7229 15.74 13.5729 16.0433 13.4729 16.39C13.3729 16.73 13.3229 17.09 13.3229 17.47C13.3229 17.85 13.3696 18.21 13.4629 18.55C13.5629 18.89 13.7129 19.19 13.9129 19.45C14.1129 19.71 14.3662 19.9167 14.6729 20.07C14.9862 20.2167 15.3529 20.29 15.7729 20.29C16.1929 20.29 16.5562 20.2167 16.8629 20.07C17.1696 19.9167 17.4196 19.7133 17.6129 19.46C17.8129 19.2 17.9596 18.9 18.0529 18.56C18.1529 18.22 18.2029 17.8567 18.2029 17.47C18.2029 17.0833 18.1529 16.72 18.0529 16.38C17.9596 16.0333 17.8129 15.7333 17.6129 15.48C17.4129 15.22 17.1596 15.0167 16.8529 14.87C16.5462 14.7167 16.1862 14.64 15.7729 14.64ZM20.978 16.92C21.078 16.78 21.1946 16.6633 21.328 16.57C21.4613 16.47 21.6046 16.3867 21.758 16.32C21.918 16.2533 22.078 16.2067 22.238 16.18C22.4046 16.1467 22.5646 16.13 22.718 16.13C23.078 16.13 23.3946 16.1867 23.668 16.3C23.948 16.4133 24.1813 16.5767 24.368 16.79C24.5613 16.9967 24.708 17.2467 24.808 17.54C24.908 17.8333 24.958 18.16 24.958 18.52C24.958 18.88 24.9046 19.2167 24.798 19.53C24.6913 19.8367 24.5346 20.1033 24.328 20.33C24.128 20.5567 23.878 20.7367 23.578 20.87C23.2846 20.9967 22.9446 21.06 22.558 21.06C22.118 21.06 21.748 20.9833 21.448 20.83C21.148 20.67 20.9046 20.46 20.718 20.2C20.538 19.9333 20.4046 19.6167 20.318 19.25C20.2313 18.8833 20.1846 18.5233 20.178 18.17C20.1646 18.0633 20.158 17.85 20.158 17.53C20.1646 17.2033 20.1813 16.91 20.208 16.65C20.2346 16.3833 20.278 16.1267 20.338 15.88C20.4046 15.6267 20.4946 15.4033 20.608 15.21C20.788 14.89 21.0146 14.6533 21.288 14.5C21.568 14.3467 21.888 14.24 22.248 14.18C22.3613 14.16 22.6146 14.1233 23.008 14.07C23.408 14.01 23.6813 13.97 23.828 13.95C23.9546 13.9367 24.0913 13.92 24.238 13.9C24.3913 13.8733 24.5413 13.8467 24.688 13.82V14.6C24.588 14.6333 24.4646 14.6633 24.318 14.69C24.1713 14.71 24.0046 14.73 23.818 14.75C23.6846 14.77 23.5446 14.79 23.398 14.81C23.258 14.8233 23.1113 14.84 22.958 14.86C22.8113 14.8733 22.5846 14.9033 22.278 14.95C22.0513 14.9833 21.8646 15.0467 21.718 15.14C21.578 15.2333 21.4546 15.3567 21.348 15.51C21.2213 15.6967 21.128 15.9233 21.068 16.19C21.0146 16.45 20.9846 16.6933 20.978 16.92ZM22.578 20.31C22.8246 20.31 23.0413 20.2633 23.228 20.17C23.4213 20.0767 23.5813 19.95 23.708 19.79C23.8413 19.63 23.9413 19.4433 24.008 19.23C24.0746 19.0167 24.108 18.79 24.108 18.55C24.108 18.3167 24.0713 18.1 23.998 17.9C23.9313 17.6933 23.8346 17.5167 23.708 17.37C23.5813 17.2167 23.428 17.1 23.248 17.02C23.068 16.9333 22.848 16.89 22.588 16.89C22.348 16.8967 22.1346 16.9433 21.948 17.03C21.7613 17.1167 21.6013 17.24 21.468 17.4C21.3346 17.5533 21.2346 17.7333 21.168 17.94C21.1013 18.14 21.0646 18.35 21.058 18.57C21.058 18.8033 21.088 19.0267 21.148 19.24C21.2146 19.4467 21.3113 19.63 21.438 19.79C21.5646 19.95 21.7213 20.0767 21.908 20.17C22.1013 20.2633 22.3246 20.31 22.578 20.31ZM26.9497 22.9H26.0997V15.73H26.9097L26.9497 16.54C27.1297 16.2533 27.373 16.04 27.6797 15.9C27.993 15.7533 28.3297 15.6767 28.6897 15.67C29.0964 15.67 29.4397 15.74 29.7197 15.88C30.0064 16.0133 30.243 16.2033 30.4297 16.45C30.623 16.69 30.7664 16.9767 30.8597 17.31C30.953 17.6367 30.9997 17.99 30.9997 18.37C30.9997 18.7567 30.953 19.1133 30.8597 19.44C30.7664 19.7667 30.623 20.05 30.4297 20.29C30.2364 20.53 29.993 20.72 29.6997 20.86C29.4064 20.9933 29.0564 21.06 28.6497 21.06C28.2497 21.06 27.9097 20.9967 27.6297 20.87C27.3497 20.7433 27.123 20.5767 26.9497 20.37V22.9ZM28.5797 20.31C28.8664 20.31 29.1064 20.26 29.2997 20.16C29.4997 20.0533 29.6597 19.9133 29.7797 19.74C29.9064 19.56 29.9964 19.3533 30.0497 19.12C30.1097 18.8867 30.143 18.6367 30.1497 18.37C30.1497 18.1033 30.1197 17.8533 30.0597 17.62C30.0064 17.38 29.9164 17.1733 29.7897 17C29.663 16.8267 29.4964 16.69 29.2897 16.59C29.0897 16.4833 28.8464 16.43 28.5597 16.43C28.2197 16.43 27.9264 16.5233 27.6797 16.71C27.433 16.89 27.2464 17.12 27.1197 17.4C27.0464 17.5533 26.9964 17.7133 26.9697 17.88C26.943 18.04 26.9297 18.2067 26.9297 18.38C26.9297 18.58 26.943 18.7667 26.9697 18.94C26.9964 19.1067 27.0464 19.2667 27.1197 19.42C27.2464 19.6733 27.4297 19.8867 27.6697 20.06C27.9164 20.2267 28.2197 20.31 28.5797 20.31ZM35.5658 20.33C35.4524 20.4833 35.3224 20.6067 35.1758 20.7C35.0291 20.7933 34.8758 20.8667 34.7158 20.92C34.5624 20.9733 34.4058 21.01 34.2458 21.03C34.0924 21.05 33.9391 21.06 33.7858 21.06C33.5391 21.06 33.3058 21.03 33.0858 20.97C32.8658 20.91 32.6658 20.8133 32.4858 20.68C32.3124 20.5467 32.1724 20.38 32.0658 20.18C31.9658 19.98 31.9158 19.7533 31.9158 19.5C31.9158 19.2 31.9691 18.95 32.0758 18.75C32.1891 18.5433 32.3391 18.3767 32.5258 18.25C32.7124 18.1233 32.9258 18.0367 33.1658 17.99C33.4124 17.9367 33.6724 17.91 33.9458 17.91H35.4958C35.4958 17.4633 35.3991 17.11 35.2058 16.85C35.0124 16.5833 34.6858 16.4433 34.2258 16.43C33.9458 16.43 33.6991 16.4767 33.4858 16.57C33.2724 16.6633 33.1258 16.8167 33.0458 17.03H32.1358C32.1824 16.79 32.2758 16.5867 32.4158 16.42C32.5558 16.2467 32.7224 16.1067 32.9158 16C33.1091 15.8867 33.3191 15.8033 33.5458 15.75C33.7724 15.6967 33.9991 15.67 34.2258 15.67C34.6191 15.67 34.9491 15.7367 35.2158 15.87C35.4891 15.9967 35.7091 16.1667 35.8758 16.38C36.0424 16.5867 36.1591 16.84 36.2258 17.14C36.2924 17.44 36.3258 17.7767 36.3258 18.15V21H35.6158L35.5658 20.33ZM34.5658 18.62C34.4058 18.62 34.2191 18.6233 34.0058 18.63C33.7991 18.63 33.5991 18.65 33.4058 18.69C33.2124 18.73 33.0558 18.8133 32.9358 18.94C32.8224 19.0667 32.7658 19.2333 32.7658 19.44C32.7658 19.5933 32.7958 19.7233 32.8558 19.83C32.9158 19.9367 32.9958 20.0267 33.0958 20.1C33.2024 20.1733 33.3224 20.2267 33.4558 20.26C33.5891 20.2933 33.7258 20.31 33.8658 20.31C34.3658 20.31 34.7591 20.19 35.0458 19.95C35.3391 19.7033 35.4891 19.3467 35.4958 18.88V18.62H34.5658ZM41.5327 15.73V16.48H39.7227V21H38.8727V16.48H37.0627V15.73H41.5327ZM42.2911 21V15.73H43.1411V18.04H45.7811V15.73H46.6311V21H45.7811V18.79H43.1411V21H42.2911ZM47.9747 15.73H48.8447V17.74H49.7947C50.0947 17.74 50.368 17.7633 50.6147 17.81C50.868 17.85 51.0914 17.9367 51.2847 18.07C51.4647 18.2033 51.6014 18.3733 51.6947 18.58C51.7947 18.78 51.8447 19.03 51.8447 19.33C51.8314 19.63 51.7747 19.88 51.6747 20.08C51.5814 20.2733 51.458 20.4367 51.3047 20.57C51.118 20.7233 50.8914 20.8333 50.6247 20.9C50.358 20.9667 50.0847 21 49.8047 21H47.9747V15.73ZM52.5747 21V15.73H53.4247V21H52.5747ZM49.1247 20.26C49.378 20.26 49.6314 20.2567 49.8847 20.25C50.1447 20.2367 50.368 20.1833 50.5547 20.09C50.6814 20.0367 50.7814 19.9467 50.8547 19.82C50.9347 19.6867 50.978 19.5333 50.9847 19.36C50.9847 19.1533 50.9414 18.99 50.8547 18.87C50.7747 18.75 50.668 18.6633 50.5347 18.61C50.408 18.55 50.2647 18.5133 50.1047 18.5C49.9447 18.4867 49.788 18.48 49.6347 18.48H48.8447V20.26H49.1247ZM57.1518 14.38C57.4318 14.38 57.6551 14.3267 57.8218 14.22C57.9951 14.1133 58.0818 13.9267 58.0818 13.66H58.8618C58.8485 14.14 58.6885 14.49 58.3818 14.71C58.0818 14.93 57.6685 15.04 57.1418 15.04C56.6151 15.04 56.2018 14.93 55.9018 14.71C55.6085 14.49 55.4551 14.14 55.4418 13.66H56.2218C56.2285 13.9267 56.3151 14.1133 56.4818 14.22C56.6485 14.3267 56.8718 14.38 57.1518 14.38ZM55.5918 21H54.7618V15.73H55.6118V19.77C55.6585 19.6767 55.7218 19.5767 55.8018 19.47C55.8818 19.3567 55.9451 19.27 55.9918 19.21L58.5418 15.73H59.3818V21H58.5318V16.96C58.4785 17.06 58.4185 17.1567 58.3518 17.25C58.2918 17.3367 58.2351 17.4133 58.1818 17.48L55.5918 21ZM66.5441 18.17C66.8841 18.2767 67.1208 18.4433 67.2541 18.67C67.3875 18.8967 67.4541 19.1667 67.4541 19.48C67.4475 19.76 67.3808 20 67.2541 20.2C67.1341 20.4 66.9741 20.5633 66.7741 20.69C66.5741 20.8167 66.3475 20.91 66.0941 20.97C65.8408 21.03 65.5808 21.06 65.3141 21.06C65.0608 21.06 64.8041 21.0367 64.5441 20.99C64.2908 20.9433 64.0608 20.8633 63.8541 20.75C63.6475 20.6367 63.4741 20.4867 63.3341 20.3C63.2008 20.1133 63.1275 19.8767 63.1141 19.59H63.9441C63.9708 19.73 64.0341 19.8467 64.1341 19.94C64.2341 20.0267 64.3508 20.1 64.4841 20.16C64.6241 20.2133 64.7675 20.2533 64.9141 20.28C65.0675 20.3 65.2041 20.31 65.3241 20.31C65.4641 20.31 65.6075 20.3 65.7541 20.28C65.9075 20.26 66.0475 20.22 66.1741 20.16C66.3008 20.1 66.4041 20.0167 66.4841 19.91C66.5641 19.7967 66.6041 19.6533 66.6041 19.48C66.6041 19.34 66.5741 19.2133 66.5141 19.1C66.4541 18.98 66.3608 18.89 66.2341 18.83C66.1208 18.7767 65.9908 18.7467 65.8441 18.74C65.6975 18.7267 65.5608 18.72 65.4341 18.72H64.4941V17.97H65.2641C65.3908 17.97 65.5208 17.96 65.6541 17.94C65.7875 17.9133 65.9075 17.87 66.0141 17.81C66.1275 17.75 66.2175 17.6733 66.2841 17.58C66.3575 17.48 66.3975 17.34 66.4041 17.16C66.4041 17.02 66.3708 16.9033 66.3041 16.81C66.2441 16.7167 66.1608 16.6433 66.0541 16.59C65.9541 16.53 65.8375 16.49 65.7041 16.47C65.5775 16.4433 65.4508 16.43 65.3241 16.43C65.2041 16.43 65.0775 16.44 64.9441 16.46C64.8108 16.4733 64.6875 16.5067 64.5741 16.56C64.4608 16.6067 64.3641 16.6733 64.2841 16.76C64.2041 16.8467 64.1541 16.96 64.1341 17.1H63.2941C63.3008 16.8333 63.3641 16.61 63.4841 16.43C63.6108 16.2433 63.7708 16.0967 63.9641 15.99C64.1575 15.8767 64.3708 15.7967 64.6041 15.75C64.8441 15.6967 65.0808 15.67 65.3141 15.67C65.5475 15.67 65.7775 15.6933 66.0041 15.74C66.2375 15.7867 66.4441 15.8667 66.6241 15.98C66.8041 16.0867 66.9508 16.23 67.0641 16.41C67.1775 16.59 67.2341 16.8133 67.2341 17.08C67.2341 17.32 67.1775 17.5333 67.0641 17.72C66.9508 17.9067 66.7775 18.0567 66.5441 18.17ZM68.5509 15.73H70.5909C70.9309 15.73 71.2209 15.7533 71.4609 15.8C71.7075 15.8467 71.9142 15.93 72.0809 16.05C72.2275 16.15 72.3409 16.2833 72.4209 16.45C72.5075 16.6167 72.5509 16.8133 72.5509 17.04C72.5509 17.5667 72.3142 17.9433 71.8409 18.17C72.2009 18.25 72.4609 18.4067 72.6209 18.64C72.7809 18.8733 72.8609 19.14 72.8609 19.44C72.8542 19.72 72.8075 19.95 72.7209 20.13C72.6342 20.3033 72.5109 20.4567 72.3509 20.59C72.1975 20.7167 72.0075 20.8167 71.7809 20.89C71.5542 20.9633 71.2975 21 71.0109 21H68.5509V15.73ZM69.4209 16.48V17.98H70.1509C70.3175 17.98 70.4875 17.9767 70.6609 17.97C70.8342 17.9567 70.9875 17.9267 71.1209 17.88C71.2875 17.8267 71.4275 17.74 71.5409 17.62C71.6542 17.5 71.7142 17.3567 71.7209 17.19C71.7209 16.9967 71.6775 16.8567 71.5909 16.77C71.5109 16.6767 71.4109 16.61 71.2909 16.57C71.1709 16.5233 71.0409 16.4967 70.9009 16.49C70.7609 16.4833 70.6309 16.48 70.5109 16.48H69.4209ZM69.4209 20.26H70.8109C70.9642 20.26 71.1109 20.25 71.2509 20.23C71.3975 20.21 71.5242 20.1733 71.6309 20.12C71.7375 20.06 71.8242 19.98 71.8909 19.88C71.9575 19.78 71.9942 19.6533 72.0009 19.5C72.0009 19.3 71.9542 19.1433 71.8609 19.03C71.7675 18.91 71.6409 18.8233 71.4809 18.77C71.3475 18.73 71.1975 18.7067 71.0309 18.7C70.8642 18.6933 70.6909 18.69 70.5109 18.69L69.4209 18.7V20.26ZM76.3396 15.67C76.7596 15.67 77.1229 15.7367 77.4296 15.87C77.7363 16.0033 77.9929 16.19 78.1996 16.43C78.4129 16.67 78.5696 16.9567 78.6696 17.29C78.7763 17.6167 78.8296 17.9767 78.8296 18.37C78.8296 18.7633 78.7763 19.1267 78.6696 19.46C78.5696 19.7867 78.4129 20.07 78.1996 20.31C77.9929 20.5433 77.7329 20.7267 77.4196 20.86C77.1063 20.9933 76.7396 21.06 76.3196 21.06C75.8996 21.06 75.5329 20.9933 75.2196 20.86C74.9129 20.7267 74.6529 20.5433 74.4396 20.31C74.2329 20.07 74.0763 19.7867 73.9696 19.46C73.8696 19.1267 73.8196 18.7633 73.8196 18.37C73.8196 17.9767 73.8696 17.6167 73.9696 17.29C74.0763 16.9567 74.2329 16.67 74.4396 16.43C74.6529 16.19 74.9163 16.0033 75.2296 15.87C75.5429 15.7367 75.9129 15.67 76.3396 15.67ZM76.3196 20.31C76.6063 20.31 76.8529 20.26 77.0596 20.16C77.2729 20.06 77.4463 19.9233 77.5796 19.75C77.7196 19.57 77.8196 19.3633 77.8796 19.13C77.9463 18.8967 77.9796 18.6433 77.9796 18.37C77.9796 18.1033 77.9463 17.8533 77.8796 17.62C77.8196 17.38 77.7196 17.1733 77.5796 17C77.4463 16.82 77.2729 16.68 77.0596 16.58C76.8529 16.48 76.6063 16.43 76.3196 16.43C76.0329 16.43 75.7863 16.48 75.5796 16.58C75.3729 16.68 75.1996 16.82 75.0596 17C74.9263 17.1733 74.8263 17.38 74.7596 17.62C74.6996 17.8533 74.6696 18.1033 74.6696 18.37C74.6696 18.6433 74.6996 18.8967 74.7596 19.13C74.8263 19.3633 74.9263 19.57 75.0596 19.75C75.1996 19.9233 75.3729 20.06 75.5796 20.16C75.7863 20.26 76.0329 20.31 76.3196 20.31ZM79.9669 21V15.73H80.8169V18.04H83.4569V15.73H84.3069V21H83.4569V18.79H80.8169V21H79.9669ZM87.9705 15.67C88.3905 15.67 88.7538 15.7367 89.0605 15.87C89.3671 16.0033 89.6238 16.19 89.8305 16.43C90.0438 16.67 90.2005 16.9567 90.3005 17.29C90.4071 17.6167 90.4605 17.9767 90.4605 18.37C90.4605 18.7633 90.4071 19.1267 90.3005 19.46C90.2005 19.7867 90.0438 20.07 89.8305 20.31C89.6238 20.5433 89.3638 20.7267 89.0505 20.86C88.7371 20.9933 88.3705 21.06 87.9505 21.06C87.5305 21.06 87.1638 20.9933 86.8505 20.86C86.5438 20.7267 86.2838 20.5433 86.0705 20.31C85.8638 20.07 85.7071 19.7867 85.6005 19.46C85.5005 19.1267 85.4505 18.7633 85.4505 18.37C85.4505 17.9767 85.5005 17.6167 85.6005 17.29C85.7071 16.9567 85.8638 16.67 86.0705 16.43C86.2838 16.19 86.5471 16.0033 86.8605 15.87C87.1738 15.7367 87.5438 15.67 87.9705 15.67ZM87.9505 20.31C88.2371 20.31 88.4838 20.26 88.6905 20.16C88.9038 20.06 89.0771 19.9233 89.2105 19.75C89.3505 19.57 89.4505 19.3633 89.5105 19.13C89.5771 18.8967 89.6105 18.6433 89.6105 18.37C89.6105 18.1033 89.5771 17.8533 89.5105 17.62C89.4505 17.38 89.3505 17.1733 89.2105 17C89.0771 16.82 88.9038 16.68 88.6905 16.58C88.4838 16.48 88.2371 16.43 87.9505 16.43C87.6638 16.43 87.4171 16.48 87.2105 16.58C87.0038 16.68 86.8305 16.82 86.6905 17C86.5571 17.1733 86.4571 17.38 86.3905 17.62C86.3305 17.8533 86.3005 18.1033 86.3005 18.37C86.3005 18.6433 86.3305 18.8967 86.3905 19.13C86.4571 19.3633 86.5571 19.57 86.6905 19.75C86.8305 19.9233 87.0038 20.06 87.2105 20.16C87.4171 20.26 87.6638 20.31 87.9505 20.31ZM91.5977 21V15.73H92.4477V18H93.3677L94.9277 15.73H95.8977L94.1377 18.24L96.0477 21H95.0477L93.4677 18.74H92.4477V21H91.5977ZM102.529 14.64C102.109 14.64 101.749 14.7167 101.449 14.87C101.155 15.0233 100.912 15.23 100.719 15.49C100.532 15.75 100.395 16.05 100.309 16.39C100.222 16.7233 100.179 17.0733 100.179 17.44C100.179 17.8333 100.225 18.2033 100.319 18.55C100.412 18.8967 100.555 19.2 100.749 19.46C100.942 19.7133 101.189 19.9167 101.489 20.07C101.789 20.2167 102.145 20.29 102.559 20.29C103.059 20.29 103.479 20.1867 103.819 19.98C104.159 19.7733 104.379 19.4967 104.479 19.15H105.429C105.275 19.7367 104.952 20.2067 104.459 20.56C103.965 20.9067 103.325 21.08 102.539 21.08C101.992 21.08 101.515 20.99 101.109 20.81C100.702 20.63 100.362 20.38 100.089 20.06C99.8219 19.74 99.6219 19.36 99.4886 18.92C99.3553 18.48 99.2886 17.9967 99.2886 17.47C99.2886 16.95 99.3553 16.47 99.4886 16.03C99.6219 15.59 99.8253 15.21 100.099 14.89C100.372 14.5633 100.712 14.31 101.119 14.13C101.525 13.9433 102.005 13.85 102.559 13.85C102.945 13.85 103.292 13.8967 103.599 13.99C103.912 14.0833 104.182 14.2167 104.409 14.39C104.642 14.5567 104.832 14.76 104.979 15C105.125 15.2333 105.232 15.4933 105.299 15.78H104.419C104.319 15.4333 104.102 15.1567 103.769 14.95C103.442 14.7433 103.029 14.64 102.529 14.64ZM109.99 20.33C109.876 20.4833 109.746 20.6067 109.6 20.7C109.453 20.7933 109.3 20.8667 109.14 20.92C108.986 20.9733 108.83 21.01 108.67 21.03C108.516 21.05 108.363 21.06 108.21 21.06C107.963 21.06 107.73 21.03 107.51 20.97C107.29 20.91 107.09 20.8133 106.91 20.68C106.736 20.5467 106.596 20.38 106.49 20.18C106.39 19.98 106.34 19.7533 106.34 19.5C106.34 19.2 106.393 18.95 106.5 18.75C106.613 18.5433 106.763 18.3767 106.95 18.25C107.136 18.1233 107.35 18.0367 107.59 17.99C107.836 17.9367 108.096 17.91 108.37 17.91H109.92C109.92 17.4633 109.823 17.11 109.63 16.85C109.436 16.5833 109.11 16.4433 108.65 16.43C108.37 16.43 108.123 16.4767 107.91 16.57C107.696 16.6633 107.55 16.8167 107.47 17.03H106.56C106.606 16.79 106.7 16.5867 106.84 16.42C106.98 16.2467 107.146 16.1067 107.34 16C107.533 15.8867 107.743 15.8033 107.97 15.75C108.196 15.6967 108.423 15.67 108.65 15.67C109.043 15.67 109.373 15.7367 109.64 15.87C109.913 15.9967 110.133 16.1667 110.3 16.38C110.466 16.5867 110.583 16.84 110.65 17.14C110.716 17.44 110.75 17.7767 110.75 18.15V21H110.04L109.99 20.33ZM108.99 18.62C108.83 18.62 108.643 18.6233 108.43 18.63C108.223 18.63 108.023 18.65 107.83 18.69C107.636 18.73 107.48 18.8133 107.36 18.94C107.246 19.0667 107.19 19.2333 107.19 19.44C107.19 19.5933 107.22 19.7233 107.28 19.83C107.34 19.9367 107.42 20.0267 107.52 20.1C107.626 20.1733 107.746 20.2267 107.88 20.26C108.013 20.2933 108.15 20.31 108.29 20.31C108.79 20.31 109.183 20.19 109.47 19.95C109.763 19.7033 109.913 19.3467 109.92 18.88V18.62H108.99ZM112.066 21V13.93H112.916V21H112.066ZM114.254 21V13.93H115.104V21H114.254ZM117.771 15.73H119.391V16.48H117.771V19.22C117.771 19.3733 117.778 19.5167 117.791 19.65C117.811 19.7767 117.845 19.89 117.891 19.99C117.945 20.0833 118.018 20.16 118.111 20.22C118.211 20.2733 118.345 20.3033 118.511 20.31C118.665 20.31 118.798 20.2833 118.911 20.23C119.031 20.1767 119.131 20.1133 119.211 20.04L119.581 20.66C119.408 20.8067 119.228 20.91 119.041 20.97C118.855 21.03 118.648 21.06 118.421 21.06C118.135 21.06 117.895 21.02 117.701 20.94C117.508 20.8533 117.345 20.73 117.211 20.57C117.098 20.4167 117.021 20.2367 116.981 20.03C116.941 19.8233 116.921 19.59 116.921 19.33V16.48H116.061V15.73H116.921V14.15H117.771V15.73ZM122.726 15.67C123.146 15.67 123.51 15.7367 123.816 15.87C124.123 16.0033 124.38 16.19 124.586 16.43C124.8 16.67 124.956 16.9567 125.056 17.29C125.163 17.6167 125.216 17.9767 125.216 18.37C125.216 18.7633 125.163 19.1267 125.056 19.46C124.956 19.7867 124.8 20.07 124.586 20.31C124.38 20.5433 124.12 20.7267 123.806 20.86C123.493 20.9933 123.126 21.06 122.706 21.06C122.286 21.06 121.92 20.9933 121.606 20.86C121.3 20.7267 121.04 20.5433 120.826 20.31C120.62 20.07 120.463 19.7867 120.356 19.46C120.256 19.1267 120.206 18.7633 120.206 18.37C120.206 17.9767 120.256 17.6167 120.356 17.29C120.463 16.9567 120.62 16.67 120.826 16.43C121.04 16.19 121.306 16.0033 121.626 15.87C121.946 15.7367 122.313 15.67 122.726 15.67ZM122.706 20.31C122.993 20.31 123.24 20.26 123.446 20.16C123.66 20.06 123.833 19.9233 123.966 19.75C124.106 19.57 124.206 19.3633 124.266 19.13C124.333 18.8967 124.366 18.6433 124.366 18.37C124.366 18.1033 124.333 17.8533 124.266 17.62C124.206 17.38 124.106 17.1733 123.966 17C123.833 16.82 123.66 16.68 123.446 16.58C123.24 16.48 122.993 16.43 122.706 16.43C122.42 16.43 122.173 16.48 121.966 16.58C121.76 16.68 121.586 16.82 121.446 17C121.313 17.1733 121.213 17.38 121.146 17.62C121.086 17.8533 121.056 18.1033 121.056 18.37C121.056 18.6433 121.086 18.8967 121.146 19.13C121.213 19.3633 121.313 19.57 121.446 19.75C121.586 19.9233 121.76 20.06 121.966 20.16C122.173 20.26 122.42 20.31 122.706 20.31ZM128.554 20.31C129.034 20.31 129.384 20.1667 129.604 19.88C129.83 19.5867 129.944 19.18 129.944 18.66V15.73H130.794V18.7C130.794 19.5 130.6 20.0933 130.214 20.48C129.834 20.8667 129.28 21.06 128.554 21.06C127.827 21.06 127.274 20.8667 126.894 20.48C126.52 20.0933 126.334 19.5 126.334 18.7V15.73H127.184V18.66C127.184 19.18 127.297 19.5867 127.524 19.88C127.75 20.1667 128.094 20.31 128.554 20.31ZM134.365 21.06C133.945 21.06 133.582 20.9933 133.275 20.86C132.969 20.7267 132.715 20.54 132.515 20.3C132.315 20.06 132.165 19.7767 132.065 19.45C131.965 19.1233 131.915 18.7667 131.915 18.38C131.915 18.0067 131.969 17.6567 132.075 17.33C132.182 16.9967 132.339 16.71 132.545 16.47C132.752 16.2233 133.012 16.03 133.325 15.89C133.639 15.7433 134.019 15.67 134.465 15.67C134.732 15.67 134.969 15.7 135.175 15.76C135.382 15.8133 135.575 15.9033 135.755 16.03C135.942 16.15 136.102 16.31 136.235 16.51C136.369 16.71 136.465 16.9533 136.525 17.24H135.655C135.555 16.9467 135.395 16.7367 135.175 16.61C134.962 16.4833 134.709 16.4233 134.415 16.43C134.129 16.43 133.875 16.4867 133.655 16.6C133.442 16.7067 133.269 16.85 133.135 17.03C133.009 17.21 132.915 17.42 132.855 17.66C132.795 17.8933 132.765 18.1333 132.765 18.38C132.765 18.64 132.795 18.8867 132.855 19.12C132.922 19.3533 133.019 19.56 133.145 19.74C133.279 19.9133 133.449 20.0533 133.655 20.16C133.862 20.26 134.109 20.31 134.395 20.31C134.535 20.31 134.672 20.2967 134.805 20.27C134.945 20.2433 135.072 20.2 135.185 20.14C135.305 20.0733 135.409 19.9867 135.495 19.88C135.582 19.7733 135.645 19.6433 135.685 19.49H136.565C136.512 19.7633 136.415 20 136.275 20.2C136.142 20.3933 135.975 20.5567 135.775 20.69C135.575 20.8167 135.355 20.91 135.115 20.97C134.875 21.03 134.625 21.06 134.365 21.06ZM137.643 21V13.93H138.493V16.54C138.579 16.4067 138.689 16.2833 138.823 16.17C138.956 16.0567 139.096 15.9633 139.243 15.89C139.389 15.8167 139.549 15.7633 139.723 15.73C139.903 15.69 140.076 15.67 140.243 15.67C140.623 15.67 140.939 15.7333 141.193 15.86C141.453 15.98 141.659 16.15 141.813 16.37C141.973 16.5833 142.083 16.84 142.143 17.14C142.209 17.4333 142.243 17.7533 142.243 18.1V21H141.393V18.36C141.393 18.12 141.379 17.8867 141.353 17.66C141.326 17.4267 141.266 17.22 141.173 17.04C141.079 16.86 140.946 16.7133 140.773 16.6C140.599 16.48 140.363 16.42 140.063 16.42C139.816 16.42 139.586 16.4833 139.373 16.61C139.166 16.73 138.999 16.8833 138.873 17.07C138.719 17.2767 138.616 17.5067 138.563 17.76C138.516 18.0133 138.493 18.2733 138.493 18.54V21H137.643Z" fill="#FF151F"/>
<path d="M107.314 9H269.093V9.5H107.314V9ZM0 22H142.883V22.5H0V22Z" fill="#FF151F"/>
</svg>
